<svg aria-hidden="true" style="width:0;height:0;position:absolute;overflow:hidden" xmlns="http://www.w3.org/2000/svg"><defs><symbol id="menu-burger" viewBox="0 0 32 32"><path stroke-linecap="round" stroke-width="2" d="M6 10h20M6 16h20M6 22h20"/></symbol><symbol id="to-top" viewBox="0 0 32 32"><path d="M26.851 23.75c-.431 0-.861-.179-1.167-.529l-9.683-11.067-9.683 11.067a1.55 1.55 0 1 1-2.333-2.041l10.85-12.4a1.551 1.551 0 0 1 2.332 0l10.85 12.4a1.549 1.549 0 0 1-1.166 2.571z"/></symbol><symbol id="cursor" viewBox="0 0 32 32"><path stroke-width="1.333" d="m12.031 9.341 7.289 6.803c1.247 1.164.558 3.255-1.138 3.449l-2.745.314a3.331 3.331 0 0 0-1.851.834l-1.582 1.424c-1.287 1.158-3.338.245-3.338-1.487v-9.876c0-1.749 2.086-2.655 3.365-1.462z"/></symbol><symbol id="advantages-cow" viewBox="0 0 32 32"><path fill="#f8d24e" style="fill:var(--color1,#f8d24e)" d="M16 0c8.837 0 16 7.163 16 16s-7.163 16-16 16S0 24.837 0 16 7.163 0 16 0z"/><path fill="#131313" style="fill:var(--color2,#131313)" d="M8.921 4.618c-.188.162-.725 1.282-.917 1.894-.229.758-.308 1.326-.276 2.11.042 1.12.323 1.969.944 2.857.162.233.292.433.292.449 0 .011-.099.022-.224.022-.537 0-1.543.179-2.314.411-1.225.368-1.944 1.012-1.944 1.731 0 .254.229.687.474.909.474.427 1.512.833 2.627 1.028.386.07 1.532.189 1.788.195.047 0 .063.249.063 1.066 0 .703.026 1.25.078 1.585.188 1.201.772 2.473 1.543 3.371l.266.308-.177.287c-.261.406-.36.714-.391 1.174-.078 1.104.61 2.083 1.939 2.77 2.533 1.315 6.469.801 7.944-1.039.719-.898.803-1.926.235-2.857l-.177-.287.318-.384a6.671 6.671 0 0 0 1.272-2.332c.245-.768.339-1.51.339-2.684 0-.536.016-.979.042-.979a22.66 22.66 0 0 0 1.757-.195c1.121-.195 2.137-.595 2.627-1.028.245-.222.474-.655.474-.909 0-.801-.813-1.45-2.325-1.84-.495-.13-1.428-.287-1.882-.314l-.214-.016.235-.325c.292-.395.657-1.163.798-1.667.396-1.455.151-3.149-.698-4.767-.355-.671-.599-.828-.886-.563-.11.103-.156.243-.261.752-.323 1.618-.923 2.9-1.798 3.847l-.386.422H11.86l-.344-.373c-.855-.941-1.475-2.272-1.798-3.896-.104-.509-.151-.649-.261-.752-.172-.157-.339-.152-.532.016zm.667 3.209a8.56 8.56 0 0 0 1.027 1.699l.323.417-.339.254c-.318.243-.615.59-.844.985l-.099.179-.25-.341c-.855-1.18-1.069-2.624-.615-4.123.219-.725.214-.72.412-.092.094.303.271.763.386 1.023zm13.569-1.142a5.34 5.34 0 0 1 .297 1.823c0 .985-.261 1.818-.808 2.565l-.245.335-.182-.308a3.246 3.246 0 0 0-.912-1.001 1.26 1.26 0 0 1-.25-.195c0-.016.099-.141.224-.276.579-.644 1.199-1.802 1.506-2.797.094-.308.188-.563.203-.563s.094.189.167.417zm-2.664 3.955c.579.244 1.131.941 1.22 1.531.047.325.156.53.297.563.063.011.495.049.959.081 1.647.108 2.945.46 3.498.941.255.227.229.417-.078.649-.615.465-1.944.817-3.3.876-.897.038-1.084.065-1.204.189-.089.092-.099.189-.099 1.169 0 1.326-.068 2.088-.235 2.705-.235.839-.698 1.731-1.241 2.364l-.224.26-.464-.276a5.76 5.76 0 0 0-1.72-.698c-1.976-.471-4.16-.184-5.63.741l-.339.216-.214-.254a7.84 7.84 0 0 1-.933-1.483c-.401-.931-.521-1.688-.521-3.355 0-1.618.083-1.499-1.116-1.564-1.532-.081-2.7-.357-3.435-.822-.542-.346-.454-.655.302-1.017.725-.352 1.72-.563 3.102-.649 1.074-.07 1.1-.087 1.199-.606.146-.785.725-1.434 1.454-1.639.182-.054 1.204-.065 4.332-.06l4.092.011.297.124zm-2.929 11.2c1.277.314 2.231.898 2.643 1.623.099.168.141.341.162.606.021.33.005.411-.12.682-.579 1.228-2.705 2.04-4.869 1.856-2.601-.216-4.311-1.666-3.638-3.089.365-.768 1.6-1.504 2.903-1.721.214-.032.427-.07.469-.081s.511-.011 1.042 0c.725.016 1.074.049 1.407.124z"/><path fill="#131313" style="fill:var(--color2,#131313)" d="M12.393 13.351c-.323.108-.542.249-.834.541-.255.243-.276.53-.063.703.198.162.386.141.625-.07.302-.265.537-.373.829-.373.292-.005.516.097.829.373.24.211.427.233.626.07.104-.087.136-.157.136-.319 0-.168-.036-.243-.219-.427-.516-.519-1.282-.72-1.929-.498zM18.471 13.346c-.334.124-.761.406-.933.617-.167.206-.172.438 0 .611.172.184.381.173.631-.032.615-.509 1.074-.525 1.642-.054.146.124.313.222.365.222.255 0 .464-.227.464-.498 0-.173-.433-.573-.824-.763-.433-.211-.949-.249-1.345-.103zM13.149 23.361c-.151.146-.203.357-.125.525.057.135.146.189.506.287.162.043.229.097.287.233.073.179.078.179.48.195l.401.016v-.151c-.005-.216-.125-.53-.281-.747-.182-.249-.5-.411-.86-.444-.245-.022-.308-.011-.407.087zM18.127 23.323c-.261.07-.636.422-.74.698a1.852 1.852 0 0 0-.099.492c-.01.233.01.287.136.4.308.271.714.06.714-.373 0-.211.156-.357.433-.411.292-.054.396-.173.401-.449 0-.363-.323-.503-.844-.357z"/></symbol><symbol id="advantages-ice-crema" viewBox="0 0 32 32"><path fill="#f8d24e" style="fill:var(--color1,#f8d24e)" d="M16 0c8.837 0 16 7.163 16 16s-7.163 16-16 16S0 24.837 0 16 7.163 0 16 0z"/><path style="fill:var(--color3,#000)" d="M16.078 4.557c.058.154.174.901.174 1.133 0 .574-.212 1.109-.602 1.528-.323.347-.646.54-1.422.853-.863.352-1.219.564-1.624.964-.41.41-.651.858-.737 1.383-.096.574 0 .978.294 1.21l.149.116-.236.149c-.477.313-1.345 1.051-1.494 1.277-.289.434-.26.839.067 1.003l.154.077-.174.164c-.26.246-.313.415-.275.858.024.294.014.453-.053.694-.082.313-.082.318.024.54.106.217.405.492.675.607.13.058.135.077.164.521.014.256.039 1.07.058 1.812.014.742.048 1.422.077 1.504a.57.57 0 0 0 .198.26c.28.193.472.4.598.641.14.275.294.95.762 3.282l.328 1.639.203.193c.386.381 1.123.554 2.338.554 1.219 0 1.947-.169 2.333-.549l.207-.198.299-1.518c.66-3.321.718-3.504 1.234-3.914.159-.13.313-.289.342-.362.034-.082.068-.713.092-1.668.019-.848.048-1.687.068-1.865l.029-.323.313-.236c.395-.304.549-.578.549-1.003-.005-.501-.333-1.051-.93-1.542l-.284-.231.14-.198c.583-.805.217-1.918-.868-2.661l-.328-.227.12-.125c.535-.574.622-2.285.174-3.475-.27-.709-.887-1.48-1.644-2.049-.371-.28-1.393-.897-1.485-.897-.019 0-.019.034-.005.077zm1.388 1.682c.256.251.564.593.684.766.718 1.003.901 2.261.468 3.186-.174.376-.694.935-1.176 1.268-.737.511-2.396 1.369-3.552 1.841-1.861.757-2.94.901-3.066.405-.048-.188.092-.337.684-.733.535-.366 2.935-2.15 2.979-2.222.014-.019-.231.092-.54.246-1.046.53-1.542.429-1.518-.308.014-.535.4-1.142.935-1.489.135-.087.554-.28.94-.434 1.268-.511 1.653-.771 2.082-1.412.256-.381.535-1.085.554-1.383.005-.106.024-.188.039-.188s.231.207.487.458zm1.316 5.476c.352.198.718.535.877.8.28.477.135.954-.468 1.562-.656.665-1.774 1.301-3.003 1.706-1.133.371-2.217.545-3.769.598l-.964.034.627.039c.81.053 2.376.005 2.984-.092 1.615-.256 2.988-.766 3.972-1.47.222-.159.453-.289.516-.289.159 0 .853.665.993.945a.735.735 0 0 1 .082.429c-.072.641-.853.983-2.738 1.21-2.304.275-5.317.005-6.604-.588-.607-.28-.709-.439-.554-.863.048-.135.058-.294.039-.521-.024-.299-.019-.337.087-.448.241-.26.646-.41 2.13-.786a20.534 20.534 0 0 0 1.567-.472c.819-.299 2.357-1.075 3.07-1.552.67-.443.766-.463 1.157-.241zm-6.401 5.9c1.012.294 1.909.381 3.576.347 1.253-.024 2.024-.101 3.138-.299.227-.039.424-.072.448-.072.053 0 .039 1.851-.019 2.338-.063.516-.202.916-.352 1.012-.154.101-.925.207-1.957.265-2.116.116-4.29 0-4.965-.27-.366-.149-.405-.342-.41-2.13 0-1.191.01-1.355.072-1.33.039.014.251.077.468.14zm1.142 4.097c.347.043.723.087.839.101l.207.024-.183.202c-.236.256-.598.766-.728 1.027-.149.299-.198.318-.419.198l-.188-.106-.106-.656c-.058-.357-.12-.699-.135-.757-.043-.125-.087-.125.713-.034zm5.139-.053c0 .01-.024.135-.048.275-.029.145-.149.93-.27 1.75-.246 1.711-.41 2.516-.559 2.786-.207.361-.704.574-1.509.641-.313.024-1.258-.039-1.311-.087-.039-.043.791-1.07.921-1.138.12-.068.154-.058.564.154.477.251.718.289.718.13s-.125-.313-.434-.525c-.284-.202-.386-.318-.386-.453 0-.039.14-.255.308-.482s.415-.588.54-.805l.236-.39.217.029c.439.063.554.058.54-.039a1.175 1.175 0 0 0-.183-.304c-.092-.12-.164-.241-.164-.265 0-.092.448-.935.593-1.113.125-.154.227-.231.227-.164zm-3.013.385c.241.159 1.147.945 1.205 1.041.024.043-.906 1.499-1.089 1.706-.019.024-.12-.024-.222-.101a15.48 15.48 0 0 0-.839-.578l-.651-.429.39-.66c.694-1.162.68-1.142.829-1.142.077 0 .246.072.376.164zm1.827.174c-.169.207-.308.337-.366.337-.125 0-.328-.111-.67-.362l-.284-.207.569-.034c.308-.014.607-.034.66-.043.386-.063.386-.058.092.308zm-3.644 2.318c.443.174 1.195.583 1.412.766.154.125.154.135.092.289a4.977 4.977 0 0 1-.299.516c-.125.193-.27.434-.323.535-.154.299-.202.323-.521.236-.342-.101-.525-.275-.622-.588-.13-.439-.337-1.677-.313-1.87.01-.072.212-.029.574.116z"/></symbol><symbol id="advantages-weight" viewBox="0 0 32 32"><path fill="#f8d24e" style="fill:var(--color1,#f8d24e)" d="M16 0c8.837 0 16 7.163 16 16s-7.163 16-16 16S0 24.837 0 16 7.163 0 16 0z"/><path style="fill:var(--color3,#000)" d="M14.688 4.874c-2.861.424-5.218 2.013-6.085 4.093-.277.657-.351 1.061-.351 1.853.005.585.027.802.117 1.118.186.621.319.937.596 1.382l.255.414-.287.352c-2.271 2.826-2.521 6.8-.628 9.931.707 1.175 1.862 2.329 2.989 3.001l.335.197 9.175-.078.218-.119c.761-.43 1.835-1.387 2.436-2.163a9.082 9.082 0 0 0 1.745-4.047c.085-.533.085-2.111-.005-2.613-.271-1.547-.851-2.872-1.766-4.047a4.477 4.477 0 0 1-.314-.424c0-.01.096-.171.207-.352a5.56 5.56 0 0 0 .622-1.413c.144-.518.144-1.811 0-2.329-.511-1.837-2.042-3.369-4.207-4.212-.606-.238-1.644-.492-2.314-.574-.622-.072-2.159-.057-2.739.031zm3.239.843c2.84.554 4.92 2.293 5.303 4.435.085.481.032 1.299-.112 1.754-.144.445-.41.968-.723 1.413-.128.181-.234.388-.234.455s.112.243.271.419c1.33 1.475 2.032 3.322 2.032 5.32-.005 2.272-.878 4.264-2.558 5.827a8.892 8.892 0 0 1-.915.75l-.399.269-8.792.036-.34-.217c-1.234-.802-2.346-2.127-2.963-3.534a7.942 7.942 0 0 1-.223-5.698c.335-.963.782-1.749 1.463-2.577.277-.331.404-.528.404-.621 0-.078-.138-.331-.319-.595-.638-.926-.899-1.956-.745-2.929.16-.983.606-1.791 1.431-2.593 1.074-1.04 2.574-1.728 4.335-1.987.729-.109 2.34-.067 3.085.072z"/><path style="fill:var(--color3,#000)" d="M14.927 6.628c-2.181.357-3.888 1.568-4.446 3.157-.128.357-.149.497-.149 1.009s.021.652.149 1.009c.08.228.229.543.33.704.277.445.399.461.947.129a8.61 8.61 0 0 1 2.739-1.071c.66-.135 1.925-.186 2.643-.104a8.765 8.765 0 0 1 3.314 1.107c.277.16.559.295.628.295.404 0 .92-1.164.92-2.07 0-2.013-1.925-3.736-4.654-4.166-.58-.093-1.862-.093-2.42 0zm2.633.828c.915.197 1.755.569 2.388 1.061.851.657 1.308 1.573 1.234 2.458-.027.352-.16.828-.239.88-.021.01-.319-.114-.66-.28a10.589 10.589 0 0 0-2.324-.792c-.495-.104-.702-.119-1.808-.114-1.09 0-1.319.016-1.792.114a9.56 9.56 0 0 0-2.244.766c-.793.378-.75.383-.894-.083-.186-.605-.069-1.408.293-2.013.191-.321.718-.854 1.101-1.118.729-.502 1.367-.73 2.739-.978.282-.052 1.846.021 2.207.098zM16.693 14.132c-.149.186-.149.362.005.512.101.098.202.124.569.15a4.683 4.683 0 0 1 2.005.611c.436.259 1.101.885 1.399 1.335.441.647.745 1.573.745 2.256 0 .238.021.31.133.414.17.171.394.171.558 0 .117-.119.122-.15.09-.657-.149-2.505-2.292-4.595-4.856-4.735l-.532-.031-.117.145z"/></symbol><symbol id="arrow-angle-to-right" viewBox="0 0 32 32"><path stroke-linejoin="round" stroke-linecap="round" stroke-width="5.333" d="M10.667 5.333 23.867 16l-13.2 10.667"/></symbol><symbol id="arrow-default" viewBox="0 0 32 32"><path d="M31.771 16.552a.78.78 0 0 0 0-1.104l-4.967-4.967a.78.78 0 1 0-1.104 1.104L30.115 16 25.7 20.415a.78.78 0 1 0 1.104 1.104l4.967-4.967zM0 16.78h31.22v-1.561H0v1.561z"/></symbol><symbol id="arrow-hover" viewBox="0 0 32 32"><path d="M31.816 16.444a.627.627 0 0 0 0-.887l-3.993-3.993a.627.627 0 1 0-.887.887L30.485 16l-3.549 3.549a.627.627 0 1 0 .887.887l3.993-3.993zM0 16.627h31.373v-1.255H0v1.255z"/></symbol><symbol id="arrow-focus" viewBox="0 0 32 32"><path d="M31.422 16.653a.923.923 0 0 0 0-1.305l-5.874-5.874a.922.922 0 1 0-1.305 1.305l5.222 5.222-5.222 5.222a.923.923 0 0 0 1.305 1.305l5.874-5.874zM0 16.923h30.769v-1.846H0v1.846z"/></symbol><symbol id="logo" viewBox="0 0 32 32"><path d="M16.325 14.283c1.532-4.11-1.641-6.36-3.745-7.839-.402-.302-.804-.584-1.13-.843-.582-.486-1.011-1.126-1.236-1.846s-.235-1.488-.031-2.213a.42.42 0 0 0-.124-.429.444.444 0 0 0-.443-.088 7.127 7.127 0 0 0-1.951 1.149c-.561.427-1.015.976-1.328 1.604s-.476 1.318-.478 2.018a5.37 5.37 0 0 0-1.042 1.077 3.918 3.918 0 0 0-.768 2.524c-.644.585-1.124 1.325-1.393 2.148s-.317 1.7-.14 2.547c-.256.153-.455.385-.565.66s-.126.579-.044.863c.081.285.255.535.494.713s.531.273.831.271h.028v2.337c0 .237.095.465.265.632s.4.262.64.262h.704l1.146 9.819c.024.219.129.421.294.567s.38.228.603.228h4.771c.223-.001.437-.082.603-.228s.272-.348.298-.567l1.146-9.819h.704c.24 0 .47-.094.64-.262s.265-.395.265-.632v-2.337h.028c.364 0 .713-.143.97-.397s.402-.599.402-.959a1.325 1.325 0 0 0-.402-.966l-.012.004zM5.999 6.826c.579 2.151 2.816 2.997 4.855 3.753a.437.437 0 0 0 .667-.4.429.429 0 0 0-.182-.322.444.444 0 0 0-.176-.074c-2.196-.823-4.268-1.59-4.425-3.788-.037-.604.078-1.208.334-1.758s.646-1.029 1.134-1.394a6.6 6.6 0 0 1 .981-.668 5.19 5.19 0 0 0 0 .827 4.685 4.685 0 0 0 1.697 3.271c.334.282.748.572 1.207.883 1.058.751 2.261 1.59 3.025 2.727.408.583.661 1.258.738 1.962s-.026 1.417-.3 2.072h-1.778c-3.664 0-7.876-1.002-8.708-3.808-.165-.577-.164-1.189.004-1.766s.495-1.096.945-1.498l-.02-.02zm3.299 13.551 1.344 1.328-1.344 1.328-1.343-1.336 1.343-1.32zm3.081 3.486-1.11 1.097-1.343-1.328 1.343-1.324 1.166 1.149-.056.405zm-3.081 3.045L7.955 25.58l1.343-1.328 1.344 1.328-1.344 1.328zm-.616-3.267-1.343 1.328-1.118-1.105-.048-.398 1.167-1.149 1.343 1.324zm-1.963 1.94-.269.266-.068-.604.338.338zm-.141 1.359.76-.751 1.476 1.471c.008.03.017.059.028.087H6.67l-.093-.807zm4.682-.751.76.751-.093.795H9.695l1.565-1.546zm.885-.342-.27-.266.342-.338-.072.604zm.403-3.474-.672-.676.853-.843-.181 1.519zm-1.292-1.28-1.275-1.256h2.55l-1.275 1.256zm-3.921 0L6.06 19.837h2.55l-1.275 1.256zm4.344 8.491H6.912c-.007-.001-.014-.004-.019-.009s-.008-.012-.009-.019l-.113-.954h5.052l-.109.954c-.001.008-.005.015-.011.02s-.014.008-.021.008h-.004zm3.688-13.85h-1.4a.439.439 0 0 0-.481.43.424.424 0 0 0 .144.32.447.447 0 0 0 .337.11h.499v2.337c-.001.008-.005.015-.011.02s-.014.008-.021.008H4.149c-.008 0-.016-.003-.021-.008s-.01-.012-.011-.02v-2.337h7.968a.44.44 0 0 0 .397-.431.437.437 0 0 0-.397-.431H3.236a.503.503 0 0 1-.501-.292.487.487 0 0 1 .12-.563.5.5 0 0 1 .381-.127h.913a.44.44 0 0 0 .397-.431c0-.108-.041-.212-.114-.291s-.174-.13-.283-.14h-.804a4.22 4.22 0 0 1 .877-3.458c.282.867 1.006 2.051 2.816 2.993 1.701.879 3.954 1.328 6.693 1.328h1.609a.503.503 0 0 1 .501.292.487.487 0 0 1-.12.563.5.5 0 0 1-.381.127h.028zM18.578 27.17l-.322.494.006.004.315-.498zm3.467.167.589-.013-.015-.682-.673.114.099.581zm.04 1.814.15.57.45-.118-.01-.465-.589.013zm-4.549.086.132-.575-.004-.001-.129.575zm-2.245-1.001.381-.45-.001-.001-.381.45zm-.812-1.843.59.003v-.003h-.59zm.282-1.29-.529-.26v.001l.529.259zm1.808-1.543.209.551.002-.001-.211-.55zm5.792-.149.588.046.039-.498-.485-.12-.142.572zm-.144 1.848-.11.579.646.123.051-.656-.588-.046zm-1.572-.757c-.885 0-1.629.095-2.172.333a1.774 1.774 0 0 0-.716.538c-.19.251-.281.543-.281.852h1.179c0-.069.017-.107.041-.14.031-.04.1-.104.251-.171.316-.139.862-.234 1.697-.234v-1.179zm-3.169 1.724c0 .607.272 1.107.78 1.438l.644-.988a.479.479 0 0 1-.245-.45h-1.179zm.787 1.443c.482.305 1.117.42 1.83.42V26.91c-.615 0-.99-.104-1.199-.237l-.631.996zm1.83.419c.7 0 1.383-.056 2.05-.17l-.197-1.163c-.599.102-1.217.153-1.853.153v1.179zm1.362-.737.04 1.814 1.179-.026-.04-1.814-1.179.026zm.48 1.23a8.782 8.782 0 0 1-2.234.268v1.179c.904 0 1.749-.101 2.534-.307l-.3-1.14zm-2.234.268c-.833 0-1.507-.065-2.033-.186l-.265 1.149c.641.148 1.41.217 2.297.217V28.85zm-2.036-.187c-.563-.126-.969-.26-1.24-.392l-.517 1.06c.389.19.896.348 1.5.483l.257-1.151zm-1.24-.392a3.577 3.577 0 0 1-.752-.484l-.763.899c.294.25.628.464.998.644l.517-1.06zm-.754-.485c-.401-.339-.606-.781-.603-1.389l-1.179-.006c-.005.927.331 1.713 1.021 2.296l.761-.901zm-.602-1.392c0-.396.078-.736.222-1.03l-1.059-.519a3.48 3.48 0 0 0-.342 1.549h1.179zm.221-1.029c.268-.545.742-.969 1.488-1.252l-.418-1.102c-.973.369-1.705.975-2.128 1.834l1.058.52zm1.49-1.253c.784-.301 1.66-.456 2.633-.456v-1.179c-1.1 0-2.12.175-3.056.534l.423 1.101zm2.633-.456c.992 0 1.927.11 2.806.328l.284-1.144a12.79 12.79 0 0 0-3.09-.363v1.179zm2.36-.29-.144 1.848 1.176.092.144-1.848-1.176-.092zm.554 1.315a9.14 9.14 0 0 0-1.682-.177v1.179c.415 0 .901.05 1.462.157l.22-1.159zm5.753.942-.003.59.599.003-.006-.599-.59.006zm-.254-.766-.401.432.005.005.396-.437zm-1.468.057.408.425.004-.004-.413-.421zm-.357.697-.582-.096-.112.681.69.004.003-.59zm4.336 3.144.356.47.212-.161.02-.265-.588-.044zm-1.273.472-.127-.576-.003.001.13.575zm-4.422-.161-.201.554.005.002.196-.556zm-1.007-.536-.366.462.007.005.359-.468zm-.674-.846-.529.261.001.002.527-.264zm.691-3.576.392.44-.392-.44zm5.389-.639.236-.54-.006-.002-.23.543zm1.353 1.244-.53.258.002.003.529-.261zm.231 1.031.588.043.002-.021v-.021h-.59zm-.069.95-.003.59.551.003.04-.55-.588-.043zm-4.67-.023.003-.59-.769-.004.196.744.57-.15zm.668.823-.29.513.002.001.288-.515zm3.581-.202v-.59h-.118l-.109.045.227.544zm.311 0 .588.044.047-.634h-.635v.59zm-1.777-1.676c-.005-.426-.103-.884-.447-1.196l-.792.873c-.007-.006.007.001.023.052a.943.943 0 0 1 .036.283l1.179-.013zm-.441-1.191c-.309-.287-.715-.382-1.115-.382v1.179c.23 0 .3.055.313.067l.802-.864zm-1.116-.382c-.439 0-.847.138-1.167.451l.825.842c.064-.063.159-.114.342-.114v-1.179zm-1.162.446c-.29.279-.465.629-.53 1.026l1.164.191a.622.622 0 0 1 .184-.367l-.817-.851zm.048 1.712 2.079.012.007-1.179-2.079-.012-.007 1.179zm3.983 2.084c-.129.098-.444.234-1.043.366l.254 1.152c.622-.137 1.155-.315 1.502-.578l-.712-.94zm-1.047.367a7.48 7.48 0 0 1-1.649.193v1.179c.623 0 1.26-.075 1.909-.222l-.26-1.15zm-1.649.193c-.556 0-1.013-.026-1.378-.075l-.157 1.169c.434.058.947.086 1.535.086v-1.179zm-1.378-.076a5.262 5.262 0 0 1-1.068-.26l-.392 1.112c.428.151.863.257 1.304.316l.157-1.169zm-1.064-.258a3.16 3.16 0 0 1-.85-.449l-.718.936c.336.258.727.463 1.165.622l.402-1.108zm-.842-.443a1.88 1.88 0 0 1-.512-.648l-1.055.527c.208.415.485.768.835 1.045l.732-.924zm-.511-.645c-.124-.251-.198-.574-.198-.988h-1.179c0 .553.099 1.063.32 1.511l1.057-.523zm-.198-.989c0-.415.075-.781.216-1.107l-1.082-.469a3.919 3.919 0 0 0-.314 1.576h1.179zm.216-1.106a2.19 2.19 0 0 1 .536-.779l-.784-.881a3.362 3.362 0 0 0-.834 1.19l1.082.469zm.536-.78c.634-.565 1.6-.893 2.993-.893v-1.179c-1.563 0-2.853.367-3.778 1.192l.785.88zm2.994-.892c.625 0 1.214.119 1.773.356l.461-1.086a5.672 5.672 0 0 0-2.234-.45v1.179zm1.767.354c.522.228.859.55 1.059.961l1.06-.516c-.338-.695-.903-1.201-1.647-1.526l-.472 1.081zm1.061.964c.11.223.169.476.169.77h1.179c0-.459-.094-.893-.291-1.292l-1.057.522zm.171.727-.069.95 1.176.086.069-.95-1.176-.086zm.521.403-4.669-.023-.006 1.179 4.669.023.006-1.179zm-5.242.717c.138.523.475.919.948 1.186l.58-1.027c-.233-.132-.341-.284-.388-.46l-1.14.301zm.95 1.187c.478.267 1.076.374 1.744.374v-1.179c-.56 0-.933-.093-1.169-.224l-.575 1.029zm1.745.375c.717 0 1.505-.194 2.351-.546l-.453-1.089c-.758.316-1.387.456-1.898.456v1.179zm2.124-.501h.311v-1.179h-.311v1.179zm-.277-.634-.109 1.462 1.176.088.109-1.462-1.176-.088z"/></symbol><symbol id="menu-burger" viewBox="0 0 32 32"><path stroke-linecap="round" stroke-width="2" d="M6 10h20M6 16h20M6 22h20"/></symbol><symbol id="menu-close" viewBox="0 0 32 32"><path d="M28.108 1.727 16 13.835 3.892 1.727c-.291-.266-.674-.41-1.069-.402s-.771.169-1.05.449a1.534 1.534 0 0 0-.047 2.119l12.102 12.108L1.723 28.106a1.54 1.54 0 0 0-.475 1.09 1.54 1.54 0 0 0 .448 1.102 1.52 1.52 0 0 0 1.101.45 1.542 1.542 0 0 0 1.091-.474l12.111-12.105 12.108 12.108c.291.266.674.41 1.069.402s.771-.169 1.05-.449a1.536 1.536 0 0 0 .046-2.119L18.164 16.003 30.272 3.892a1.54 1.54 0 0 0 .476-1.09A1.522 1.522 0 0 0 30.3 1.7a1.52 1.52 0 0 0-1.101-.45 1.526 1.526 0 0 0-1.091.474v.003z"/></symbol><symbol id="subscribe-facebook" viewBox="0 0 32 32"><path fill="#f8d24e" style="fill:var(--color1,#f8d24e)" d="M16 32c8.837 0 16-7.163 16-16S24.837 0 16 0 0 7.163 0 16s7.163 16 16 16z"/><path d="M20.446 15.982h-2.61v9.619h-3.955v-9.619H12v-3.38h1.881v-2.187c0-1.564.739-4.014 3.99-4.014l2.929.012v3.281h-2.125c-.349 0-.839.175-.839.921v1.989h2.955l-.346 3.377z"/></symbol><symbol id="subscribe-github" viewBox="0 0 32 32"><path fill="#f8d24e" style="fill:var(--color1,#f8d24e)" d="M32 16c0 8.837-7.163 16-16 16S0 24.837 0 16 7.163 0 16 0s16 7.163 16 16z"/><path d="M16 6.588c-5.169 0-9.412 4.242-9.412 9.412 0 4.411 3.095 8.419 7.206 9.412v-3.114a2.307 2.307 0 0 1-1.197-.03c-.556-.164-1.008-.535-1.344-1.1-.214-.361-.593-.752-.988-.723l-.097-1.099c.855-.073 1.595.521 2.034 1.259.195.328.419.52.708.605.278.082.578.043.926-.08.088-.698.407-.959.648-1.326v-.001c-2.451-.366-3.428-1.666-3.816-2.693-.514-1.363-.238-3.066.671-4.142.018-.021.05-.076.037-.114-.417-1.258.091-2.299.11-2.41.481.142.559-.143 2.089.786l.264.159c.111.066.076.028.186.02A8.031 8.031 0 0 1 16 11.131a8.016 8.016 0 0 1 2.002.285l.086.009c-.007-.001.023-.005.075-.036 1.911-1.157 1.842-.779 2.355-.946.019.111.519 1.169.107 2.411-.056.171 1.657 1.739.708 4.256-.388 1.027-1.365 2.328-3.816 2.693v.001c.314.479.692.734.69 1.722v3.887c4.111-.993 7.206-5 7.206-9.412 0-5.169-4.242-9.412-9.412-9.412z"/></symbol><symbol id="subscribe-telegram" viewBox="0 0 32 32"><path fill="#f8d24e" style="fill:var(--color1,#f8d24e)" d="M32 16c0 8.837-7.163 16-16 16S0 24.837 0 16 7.163 0 16 0s16 7.163 16 16z"/><path d="m12.869 18.375-.318 4.169c.454 0 .651-.182.887-.401l2.13-1.9 4.415 3.017c.81.421 1.38.199 1.598-.695l2.898-12.672.001-.001c.257-1.117-.433-1.554-1.222-1.28L6.226 14.698c-1.162.421-1.145 1.026-.198 1.3l4.354 1.264 10.115-5.907c.476-.294.909-.131.553.163l-8.182 6.857z"/></symbol></defs></svg>