<svg aria-hidden="true" style="width:0;height:0;position:absolute;overflow:hidden" xmlns="http://www.w3.org/2000/svg"><defs><symbol id="arrow-angle" viewBox="0 0 20 32"><path stroke-linejoin="round" stroke-linecap="round" stroke-width="5.818" d="m5.678 3.765 11.777 12.321L5.678 28.407"/></symbol><symbol id="facebook" viewBox="0 0 32 32"><path fill="#f8d24e" style="fill:var(--color1,#f8d24e)" d="M16 32c8.837 0 16-7.163 16-16S24.837 0 16 0 0 7.163 0 16s7.163 16 16 16z"/><path fill="#84a178" style="fill:var(--color2,#84a178)" d="M20.446 15.982h-2.61v9.619h-3.955v-9.619H12v-3.38h1.881v-2.187c0-1.564.739-4.014 3.99-4.014l2.929.012v3.281h-2.125c-.349 0-.839.175-.839.921v1.989h2.955l-.346 3.377z"/></symbol><symbol id="github" viewBox="0 0 32 32"><path fill="#f8d24e" style="fill:var(--color1,#f8d24e)" d="M32 16c0 8.837-7.163 16-16 16S0 24.837 0 16 7.163 0 16 0s16 7.163 16 16z"/><path fill="#84a178" style="fill:var(--color2,#84a178)" d="M16 6.588c-5.169 0-9.412 4.242-9.412 9.412 0 4.411 3.095 8.419 7.206 9.412v-3.114a2.307 2.307 0 0 1-1.197-.03c-.556-.164-1.008-.535-1.344-1.1-.214-.361-.593-.752-.988-.723l-.097-1.099c.855-.073 1.595.521 2.034 1.259.195.328.419.52.708.605.278.082.578.043.926-.08.088-.698.407-.959.648-1.326v-.001c-2.451-.366-3.428-1.666-3.816-2.693-.514-1.363-.238-3.066.671-4.142.018-.021.05-.076.037-.114-.417-1.258.091-2.299.11-2.41.481.142.559-.143 2.089.786l.264.159c.111.066.076.028.186.02A8.031 8.031 0 0 1 16 11.131a8.016 8.016 0 0 1 2.002.285l.086.009c-.007-.001.023-.005.075-.036 1.911-1.157 1.842-.779 2.355-.946.019.111.519 1.169.107 2.411-.056.171 1.657 1.739.708 4.256-.388 1.027-1.365 2.328-3.816 2.693v.001c.314.479.692.734.69 1.722v3.887c4.111-.993 7.206-5 7.206-9.412 0-5.169-4.242-9.412-9.412-9.412z"/></symbol><symbol id="telegram" viewBox="0 0 32 32"><path fill="#f8d24e" style="fill:var(--color1,#f8d24e)" d="M32 16c0 8.837-7.163 16-16 16S0 24.837 0 16 7.163 0 16 0s16 7.163 16 16z"/><path fill="#84a178" style="fill:var(--color2,#84a178)" d="m12.867 18.375-.318 4.169c.454 0 .651-.182.887-.401l2.13-1.9 4.415 3.017c.81.421 1.38.199 1.599-.695l2.898-12.672.001-.001c.257-1.117-.433-1.554-1.222-1.28L6.225 14.698c-1.162.421-1.145 1.026-.198 1.3l4.355 1.264 10.115-5.907c.476-.294.909-.131.553.163l-8.182 6.857z"/></symbol><symbol id="Arrow" viewBox="0 0 32 32"><path d="M31.771 16.552a.78.78 0 0 0 0-1.104l-4.967-4.967a.78.78 0 1 0-1.104 1.104L30.115 16 25.7 20.415a.78.78 0 1 0 1.104 1.104l4.967-4.967zM0 16.78h31.22v-1.561H0v1.561z"/></symbol><symbol id="logo" viewBox="0 0 32 32"><path fill="#f8d24e" style="fill:var(--color1,#f8d24e)" d="M16.324 14.283c1.533-4.11-1.641-6.36-3.745-7.839-.402-.302-.804-.584-1.13-.843-.582-.486-1.011-1.126-1.236-1.846s-.235-1.488-.031-2.213a.42.42 0 0 0-.124-.429.444.444 0 0 0-.443-.088 7.127 7.127 0 0 0-1.951 1.149c-.561.427-1.015.976-1.328 1.604s-.476 1.318-.478 2.018a5.37 5.37 0 0 0-1.042 1.077 3.918 3.918 0 0 0-.768 2.524c-.644.585-1.124 1.325-1.393 2.148s-.317 1.7-.14 2.547c-.256.153-.455.385-.565.66s-.126.579-.044.863c.081.285.255.535.494.713s.531.273.831.271h.028v2.337c0 .237.095.465.265.632s.4.262.64.262h.704l1.146 9.819c.024.219.129.421.294.567s.38.228.603.228h4.771c.223-.001.437-.082.603-.228s.272-.348.298-.567l1.146-9.819h.704c.24 0 .47-.094.64-.262s.265-.395.265-.632v-2.337h.028c.364 0 .713-.143.97-.397s.402-.599.402-.959a1.325 1.325 0 0 0-.402-.966l-.012.004zM5.999 6.826c.579 2.151 2.816 2.997 4.855 3.753a.437.437 0 0 0 .667-.4.429.429 0 0 0-.182-.322.444.444 0 0 0-.176-.074c-2.196-.823-4.268-1.59-4.425-3.788-.037-.604.078-1.208.334-1.758s.646-1.029 1.134-1.394c.306-.252.634-.475.981-.668a5.19 5.19 0 0 0 0 .827 4.685 4.685 0 0 0 1.697 3.271c.334.282.748.572 1.207.883 1.058.751 2.261 1.59 3.025 2.727.408.583.661 1.258.738 1.962s-.026 1.417-.3 2.072h-1.778c-3.664 0-7.876-1.002-8.708-3.808-.165-.577-.164-1.189.004-1.766s.495-1.096.945-1.498l-.02-.02zm3.298 13.551 1.344 1.328-1.344 1.328-1.343-1.336 1.343-1.32zm3.081 3.486-1.11 1.097-1.343-1.328 1.343-1.324 1.166 1.149-.056.405zm-3.081 3.045L7.954 25.58l1.343-1.328 1.344 1.328-1.344 1.328zm-.615-3.267-1.343 1.328-1.118-1.105-.048-.398 1.167-1.149 1.343 1.324zm-1.963 1.94-.269.266-.068-.604.338.338zm-.141 1.359.76-.751 1.476 1.471c.008.03.017.059.028.087H6.67l-.093-.807zm4.682-.751.76.751-.093.795H9.695l1.565-1.546zm.885-.342-.269-.266.342-.338-.072.604zm.402-3.474-.672-.676.853-.843-.181 1.519zm-1.291-1.28-1.275-1.256h2.55l-1.275 1.256zm-3.922 0-1.275-1.256h2.55l-1.275 1.256zm4.344 8.491H6.911c-.007-.001-.014-.004-.019-.009s-.008-.012-.009-.019l-.113-.954h5.052l-.109.954c-.001.008-.005.015-.011.02s-.014.008-.021.008h-.004zm3.689-13.85h-1.4a.439.439 0 0 0-.481.43.424.424 0 0 0 .144.32.447.447 0 0 0 .337.11h.499v2.337c-.001.008-.005.015-.011.02s-.014.008-.021.008H4.149c-.008 0-.016-.003-.021-.008s-.01-.012-.011-.02v-2.337h7.968a.44.44 0 0 0 .397-.431.437.437 0 0 0-.397-.431H3.236a.503.503 0 0 1-.501-.292.487.487 0 0 1 .12-.563.5.5 0 0 1 .381-.127h.913a.44.44 0 0 0 .397-.431c0-.108-.041-.212-.114-.291s-.174-.13-.283-.14h-.804a4.22 4.22 0 0 1 .877-3.458c.282.867 1.006 2.051 2.816 2.993 1.701.879 3.954 1.328 6.693 1.328h1.609a.505.505 0 0 1 .501.292.487.487 0 0 1-.12.563.5.5 0 0 1-.381.127h.028zM18.578 27.17l-.322.494.006.004.315-.498zm3.467.167.589-.013-.015-.682-.673.114.099.581zm.04 1.814.15.57.45-.118-.01-.465-.589.013zm-4.549.086.132-.575-.004-.001-.129.575zm-2.245-1.001.381-.45-.001-.001-.381.45zm-.812-1.843.59.003v-.003h-.59zm.282-1.29-.529-.26v.001l.529.259zm1.808-1.543.209.551.002-.001-.211-.55zm5.792-.149.588.046.039-.498-.485-.12-.142.572zm-.144 1.848-.11.579.646.123.051-.656-.588-.046zm-1.572-.757c-.885 0-1.629.095-2.172.333a1.774 1.774 0 0 0-.716.538c-.19.251-.281.543-.281.852h1.179c0-.069.017-.107.041-.14.031-.04.1-.104.251-.171.316-.139.862-.234 1.697-.234v-1.179zm-3.169 1.724c0 .607.272 1.107.78 1.438l.644-.988a.479.479 0 0 1-.245-.45h-1.179zm.787 1.443c.482.305 1.117.42 1.83.42V26.91c-.615 0-.99-.104-1.199-.237l-.631.996zm1.83.419c.7 0 1.383-.056 2.05-.17l-.197-1.163c-.599.102-1.217.153-1.853.153v1.179zm1.362-.737.04 1.814 1.179-.026-.04-1.814-1.179.026zm.48 1.23a8.782 8.782 0 0 1-2.234.268v1.179c.904 0 1.749-.101 2.534-.307l-.3-1.14zm-2.234.268c-.833 0-1.507-.065-2.033-.186l-.265 1.149c.641.148 1.41.217 2.297.217V28.85zm-2.036-.187c-.563-.126-.969-.26-1.24-.392l-.517 1.06c.389.19.896.348 1.5.483l.257-1.151zm-1.24-.392a3.577 3.577 0 0 1-.752-.484l-.763.899c.294.25.628.464.998.644l.517-1.06zm-.754-.485c-.401-.339-.606-.781-.603-1.389l-1.179-.006c-.005.927.331 1.713 1.021 2.296l.761-.901zm-.602-1.392c0-.396.078-.736.222-1.03l-1.059-.519a3.48 3.48 0 0 0-.342 1.549h1.179zm.221-1.029c.268-.545.742-.969 1.488-1.252l-.418-1.102c-.973.369-1.705.975-2.128 1.834l1.058.52zm1.49-1.253c.784-.301 1.66-.456 2.633-.456v-1.179c-1.1 0-2.12.175-3.056.534l.423 1.101zm2.633-.456c.992 0 1.927.11 2.806.328l.284-1.144a12.79 12.79 0 0 0-3.09-.363v1.179zm2.36-.29-.144 1.848 1.176.092.144-1.848-1.176-.092zm.554 1.315a9.14 9.14 0 0 0-1.682-.177v1.179c.415 0 .901.05 1.462.157l.22-1.159zm5.753.942-.003.59.599.003-.006-.599-.59.006zm-.254-.766-.401.432.005.005.396-.437zm-1.468.057.408.425.004-.004-.413-.421zm-.357.697-.582-.096-.112.681.69.004.003-.59zm4.336 3.144.356.47.212-.161.02-.265-.588-.044zm-1.273.472-.127-.576-.003.001.13.575zm-4.422-.161-.201.554.005.002.196-.556zm-1.007-.536-.366.462.007.005.359-.468zm-.674-.846-.529.261.001.002.527-.264zm.691-3.576.392.44-.392-.44zm5.389-.639.236-.54-.006-.002-.23.543zm1.353 1.244-.53.258.002.003.529-.261zm.231 1.031.588.043.002-.021v-.021h-.59zm-.069.95-.003.59.551.003.04-.55-.588-.043zm-4.67-.023.003-.59-.769-.004.196.744.57-.15zm.668.823-.29.513.002.001.288-.515zm3.581-.202v-.59h-.118l-.109.045.227.544zm.311 0 .588.044.047-.634h-.635v.59zm-1.777-1.676c-.005-.426-.103-.884-.447-1.196l-.792.873c-.007-.006.007.001.023.052a.943.943 0 0 1 .036.283l1.179-.013zm-.441-1.191c-.309-.287-.715-.382-1.115-.382v1.179c.23 0 .3.055.313.067l.802-.864zm-1.116-.382c-.439 0-.847.138-1.167.451l.825.842c.064-.063.159-.114.342-.114v-1.179zm-1.162.446c-.29.279-.465.629-.53 1.026l1.164.191a.622.622 0 0 1 .184-.367l-.817-.851zm.048 1.712 2.079.012.007-1.179-2.079-.012-.007 1.179zm3.983 2.084c-.129.098-.444.234-1.043.366l.254 1.152c.622-.137 1.155-.315 1.502-.578l-.712-.94zm-1.047.367a7.48 7.48 0 0 1-1.649.193v1.179c.623 0 1.26-.075 1.909-.222l-.26-1.15zm-1.649.193c-.556 0-1.013-.026-1.378-.075l-.157 1.169c.434.058.947.086 1.535.086v-1.179zm-1.378-.076a5.262 5.262 0 0 1-1.068-.26l-.392 1.112c.428.151.863.257 1.304.316l.157-1.169zm-1.064-.258a3.16 3.16 0 0 1-.85-.449l-.718.936c.336.258.727.463 1.165.622l.402-1.108zm-.842-.443a1.88 1.88 0 0 1-.512-.648l-1.055.527c.208.415.485.768.835 1.045l.732-.924zm-.511-.645c-.124-.251-.198-.574-.198-.988h-1.179c0 .553.099 1.063.32 1.511l1.057-.523zm-.198-.989c0-.415.075-.781.216-1.107l-1.082-.469a3.919 3.919 0 0 0-.314 1.576h1.179zm.216-1.106a2.19 2.19 0 0 1 .536-.779l-.784-.881a3.362 3.362 0 0 0-.834 1.19l1.082.469zm.536-.78c.634-.565 1.6-.893 2.993-.893v-1.179c-1.563 0-2.853.367-3.778 1.192l.785.88zm2.994-.892c.625 0 1.214.119 1.773.356l.461-1.086a5.672 5.672 0 0 0-2.234-.45v1.179zm1.767.354c.522.228.859.55 1.059.961l1.06-.516c-.338-.695-.903-1.201-1.647-1.526l-.472 1.081zm1.061.964c.11.223.169.476.169.77h1.179c0-.459-.094-.893-.291-1.292l-1.057.522zm.171.727-.069.95 1.176.086.069-.95-1.176-.086zm.521.403-4.669-.023-.006 1.179 4.669.023.006-1.179zm-5.242.717c.138.523.475.919.948 1.186l.58-1.027c-.233-.132-.341-.284-.388-.46l-1.14.301zm.95 1.187c.478.267 1.076.374 1.744.374v-1.179c-.56 0-.933-.093-1.169-.224l-.575 1.029zm1.745.375c.717 0 1.505-.194 2.351-.546l-.453-1.089c-.758.316-1.387.456-1.898.456v1.179zm2.124-.501h.311v-1.179h-.311v1.179zm-.277-.634-.109 1.462 1.176.088.109-1.462-1.176-.088z"/></symbol></defs></svg>