<svg width="16" height="16" viewBox="0 0 16 16" fill="none" xmlns="http://www.w3.org/2000/svg">
<g clip-path="url(#clip0_1175_307)">
<path d="M8.62687 7.99997L12.3113 4.31553C12.3841 4.23051 12.4222 4.12114 12.4179 4.00928C12.4135 3.89743 12.3672 3.79132 12.288 3.71217C12.2089 3.63302 12.1028 3.58664 11.9909 3.58232C11.879 3.578 11.7697 3.61605 11.6846 3.68886L8.00021 7.37331L4.31576 3.68442C4.23207 3.60073 4.11856 3.55371 4.00021 3.55371C3.88185 3.55371 3.76834 3.60073 3.68465 3.68442C3.60096 3.76811 3.55394 3.88162 3.55394 3.99997C3.55394 4.11833 3.60096 4.23184 3.68465 4.31553L7.37354 7.99997L3.68465 11.6844C3.63812 11.7243 3.60034 11.7733 3.57366 11.8284C3.54698 11.8836 3.53199 11.9436 3.52963 12.0048C3.52726 12.066 3.53758 12.1271 3.55992 12.1841C3.58227 12.2412 3.61616 12.2929 3.65947 12.3363C3.70278 12.3796 3.75458 12.4135 3.81162 12.4358C3.86865 12.4582 3.92969 12.4685 3.9909 12.4661C4.0521 12.4637 4.11216 12.4488 4.1673 12.4221C4.22244 12.3954 4.27147 12.3576 4.31132 12.3111L8.00021 8.62664L11.6846 12.3111C11.7697 12.3839 11.879 12.4219 11.9909 12.4176C12.1028 12.4133 12.2089 12.3669 12.288 12.2878C12.3672 12.2086 12.4135 12.1025 12.4179 11.9907C12.4222 11.8788 12.3841 11.7694 12.3113 11.6844L8.62687 7.99997Z" fill="#131313"/>
</g>
<defs>
<clipPath id="clip0_1175_307">
<rect width="16" height="16" fill="white"/>
</clipPath>
</defs>
</svg>
