<!-- Generated by IcoMoon.io -->
<svg version="1.1" xmlns="http://www.w3.org/2000/svg" width="1024" height="1024" viewBox="0 0 1024 1024">
<title></title>
<g id="icomoon-ignore">
</g>
<path d="M522.389 457.060c49.039-131.533-52.516-203.533-119.836-250.853-12.87-9.668-25.743-18.7-36.169-26.968-18.635-15.539-32.361-36.039-39.548-59.063s-7.535-47.603-0.998-70.816c0.672-2.429 0.655-4.993-0.047-7.413-0.704-2.42-2.067-4.602-3.94-6.309-1.871-1.707-4.183-2.872-6.682-3.368s-5.084-0.305-7.479 0.553c-22.671 8.865-43.75 21.278-62.428 36.763-17.946 13.674-32.485 31.228-42.503 51.315s-15.248 42.176-15.29 64.571c-12.693 9.889-23.916 21.494-33.337 34.473-17.309 23.351-25.987 51.865-24.585 80.776-20.618 18.716-35.973 42.396-44.568 68.725s-10.136 54.413-4.473 81.508c-8.202 4.898-14.551 12.32-18.072 21.129s-4.018 18.517-1.417 27.631c2.602 9.116 8.159 17.135 15.819 22.827s16.998 8.742 26.581 8.681h0.901v74.799c0 7.59 3.051 14.871 8.482 20.239s12.798 8.382 20.479 8.382h22.525l36.684 314.204c0.763 6.995 4.116 13.463 9.416 18.159 5.299 4.698 12.17 7.292 19.287 7.283h152.657c7.125-0.017 13.997-2.615 19.311-7.305s8.702-11.145 9.523-18.138l36.683-314.204h22.526c7.68 0 15.046-3.014 20.478-8.382s8.482-12.649 8.482-20.239v-74.799h0.902c11.642 0 22.805-4.57 31.036-12.704 8.233-8.134 12.855-19.168 12.855-30.673 0.060-5.741-1.050-11.437-3.262-16.747-2.21-5.31-5.478-10.127-9.609-14.165l-0.386 0.128zM191.975 218.419c18.535 68.82 90.101 95.915 155.36 120.084 1.756 1.067 3.727 1.741 5.773 1.969 2.048 0.23 4.119 0.011 6.071-0.64 1.952-0.653 3.735-1.719 5.222-3.13s2.641-3.125 3.381-5.026c0.74-1.899 1.047-3.938 0.9-5.969-0.145-2.031-0.742-4.004-1.749-5.781-1.005-1.777-2.396-3.313-4.068-4.499-1.675-1.186-3.593-1.995-5.619-2.366-70.278-26.332-136.567-50.882-141.587-121.228-1.175-19.337 2.496-38.662 10.692-56.26s20.661-32.923 36.288-44.616c9.792-8.051 20.305-15.204 31.407-21.371-0.715 8.806-0.715 17.654 0 26.459 1.491 20.158 7.068 39.814 16.399 57.799s22.227 33.932 37.92 46.892c10.684 9.032 23.94 18.318 38.615 28.24 33.852 24.043 72.337 50.882 96.794 87.264 13.047 18.658 21.167 40.245 23.618 62.797 2.449 22.549-0.847 45.348-9.589 66.319h-56.892c-117.259 0-252.025-32.055-278.669-121.865-5.286-18.477-5.242-38.044 0.125-56.497s15.845-35.058 30.252-47.94l-0.643-0.636zM297.521 652.068l42.993 42.487-42.993 42.487-42.991-42.741 42.991-42.234zM396.117 763.631l-35.524 35.108-42.991-42.487 42.991-42.359 37.327 36.764-1.803 12.975zM297.521 861.071l-42.991-42.487 42.991-42.487 42.993 42.487-42.993 42.487zM277.828 756.508l-42.991 42.485-35.783-35.362-1.545-12.721 37.328-36.764 42.991 42.362zM215.014 818.583l-8.623 8.523-2.188-19.334 10.812 10.812zM210.51 862.089l24.327-24.043 47.238 47.068c0.241 0.949 0.544 1.886 0.902 2.799h-69.508l-2.96-25.824zM360.335 838.046l24.329 24.043-2.961 25.442h-71.437l50.069-49.485zM388.653 827.106l-8.625-8.523 10.942-10.812-2.317 19.334zM401.525 715.927l-21.498-21.626 27.29-26.967-5.792 48.593zM360.207 674.967l-40.804-40.198h81.606l-40.802 40.198zM234.709 674.967l-40.804-40.198h81.606l-40.802 40.198zM373.722 946.682h-152.529c-0.228-0.026-0.442-0.128-0.606-0.29s-0.267-0.373-0.294-0.599l-3.603-30.53h161.666l-3.475 30.53c-0.032 0.247-0.154 0.474-0.343 0.638s-0.433 0.254-0.687 0.252h-0.128zM491.755 503.49h-44.794c-1.946-0.183-3.91 0.036-5.766 0.644-1.856 0.61-3.563 1.596-5.011 2.895-1.446 1.301-2.603 2.884-3.394 4.653-0.791 1.766-1.201 3.678-1.201 5.611s0.41 3.844 1.201 5.611c0.791 1.769 1.948 3.354 3.394 4.653 1.449 1.299 3.155 2.285 5.011 2.895s3.821 0.828 5.766 0.644h15.962v74.797c-0.032 0.247-0.154 0.476-0.343 0.64s-0.435 0.254-0.687 0.252h-329.127c-0.252 0.002-0.496-0.087-0.686-0.252s-0.312-0.393-0.343-0.64v-74.797h254.986c3.473-0.331 6.697-1.926 9.041-4.478 2.347-2.554 3.646-5.877 3.646-9.325s-1.299-6.771-3.646-9.323c-2.345-2.554-5.568-4.149-9.041-4.48h-283.175c-2.208 0.198-4.433-0.062-6.533-0.764-2.1-0.7-4.030-1.824-5.667-3.302s-2.943-3.277-3.837-5.28c-0.894-2.005-1.356-4.173-1.356-6.364s0.462-4.356 1.356-6.362c0.894-2.005 2.201-3.804 3.837-5.282 1.636-1.476 3.566-2.603 5.667-3.302s4.326-0.96 6.533-0.764h29.218c3.473-0.329 6.696-1.926 9.042-4.478s3.646-5.875 3.646-9.325c0-3.447-1.3-6.771-3.646-9.323s-5.569-4.149-9.042-4.478h-25.743c-3.687-19.356-3.088-39.27 1.756-58.374 4.844-19.106 13.818-36.947 26.304-52.297 9.010 27.731 32.179 65.638 90.102 95.787 54.447 28.113 126.528 42.487 214.182 42.487h51.486c2.208-0.196 4.433 0.064 6.534 0.764s4.030 1.826 5.666 3.302c1.636 1.478 2.944 3.277 3.838 5.282s1.355 4.171 1.355 6.362c0 2.191-0.461 4.358-1.355 6.364-0.894 2.003-2.202 3.802-3.838 5.28s-3.565 2.603-5.666 3.302c-2.101 0.702-4.326 0.962-6.534 0.764h0.902z"></path>
<path d="M594.511 869.455l-10.302 15.806 0.207 0.132 10.095-15.938zM705.427 874.797l18.861-0.418-0.484-21.837-21.534 3.654 3.157 18.601zM706.716 932.834l4.802 18.244 14.391-3.787-0.331-14.878-18.863 0.42zM561.163 935.597l4.235-18.385-0.115-0.026-4.119 18.411zM489.308 903.539l12.207-14.385-0.030-0.026-12.177 14.411zM463.33 844.58l18.865 0.096v-0.096h-18.865zM472.358 803.311l-16.93-8.326-0.013 0.023 16.943 8.303zM530.21 753.933l6.694 17.638 0.068-0.026-6.763-17.613zM715.561 749.143l18.81 1.463 1.239-15.932-15.509-3.844-4.54 18.313zM710.955 808.286l-3.514 18.537 20.687 3.921 1.636-20.994-18.81-1.463zM660.655 784.075c-28.314 0-52.113 3.025-69.5 10.671-8.909 3.917-17.015 9.429-22.918 17.216-6.086 8.028-8.99 17.387-8.99 27.277h37.734c0-2.21 0.533-3.437 1.327-4.482 0.977-1.289 3.187-3.339 8.036-5.47 10.127-4.452 27.597-7.477 54.31-7.477v-37.734zM559.247 839.238c0 19.413 8.702 35.424 24.964 46.022l20.602-31.614c-5.602-3.65-7.831-7.785-7.831-14.409h-37.734zM584.416 885.393c15.418 9.762 35.744 13.429 58.551 13.429v-37.732c-19.691 0-31.667-3.337-38.362-7.575l-20.19 31.878zM642.967 898.822c22.389 0 44.265-1.803 65.615-5.425l-6.313-37.201c-19.183 3.255-38.946 4.894-59.302 4.894v37.732zM686.564 875.217l1.291 58.035 37.724-0.838-1.291-58.035-37.724 0.838zM701.916 914.588c-21.57 5.677-45.361 8.591-71.477 8.591v37.734c28.913 0 55.974-3.228 81.079-9.835l-9.602-36.491zM630.438 923.179c-26.65 0-48.218-2.093-65.041-5.967l-8.467 36.772c20.514 4.723 45.131 6.929 73.508 6.929v-37.734zM565.282 917.186c-18.007-4.028-31.014-8.307-39.689-12.544l-16.559 33.905c12.45 6.082 28.678 11.138 48.011 15.462l8.237-36.823zM525.594 904.642c-9.301-4.542-17.289-9.726-24.079-15.488l-24.414 28.77c9.423 7.996 20.107 14.848 31.934 20.623l16.559-33.905zM501.485 889.129c-12.819-10.833-19.386-24.992-19.29-44.452l-37.732-0.19c-0.147 29.67 10.603 54.818 32.668 73.463l24.354-28.821zM482.195 844.58c0-12.683 2.49-23.55 7.104-32.969l-33.884-16.604c-7.422 15.149-10.953 31.795-10.953 49.572h37.732zM489.289 811.637c8.582-17.453 23.738-31.004 47.616-40.066l-13.387-35.277c-31.151 11.819-54.564 31.185-68.090 58.69l33.86 16.653zM536.973 771.546c25.103-9.636 53.114-14.592 84.254-14.592v-37.732c-35.187 0-67.853 5.609-97.779 17.099l13.525 35.226zM621.227 756.954c31.759 0 61.67 3.529 89.794 10.5l9.079-36.623c-31.328-7.767-64.305-11.61-98.874-11.61v37.732zM696.751 747.678l-4.606 59.142 37.619 2.929 4.606-59.142-37.619-2.929zM714.468 789.749c-19.631-3.723-37.606-5.675-53.813-5.675v37.734c13.274 0 28.83 1.609 46.786 5.013l7.027-37.073zM898.551 819.891l-0.105 18.867 19.174 0.107-0.205-19.174-18.865 0.201zM890.445 795.388l-12.838 13.826 0.164 0.149 12.674-13.975zM843.462 797.231l13.067 13.611 0.139-0.137-13.205-13.474zM832.038 819.524l-18.615-3.061-3.584 21.805 22.095 0.122 0.105-18.865zM970.775 920.122l11.396 15.034 6.782-5.139 0.636-8.489-18.814-1.406zM930.057 935.23l-4.055-18.426-0.111 0.023 4.166 18.402zM788.557 930.069l-6.432 17.737 0.154 0.055 6.278-17.792zM756.316 912.937l-11.712 14.793 0.228 0.175 11.484-14.967zM734.758 885.852l-16.913 8.363 0.038 0.075 16.875-8.437zM756.868 771.437l12.546 14.091 0.009-0.009-12.555-14.082zM929.321 750.985l7.546-17.293-0.177-0.075-7.369 17.367zM972.619 790.782l-16.969 8.247 0.051 0.107 16.917-8.354zM979.987 823.761l18.818 1.37 0.049-0.685v-0.685h-18.867zM977.777 854.161l-0.094 18.867 17.632 0.087 1.278-17.585-18.816-1.37zM828.354 853.425l0.094-18.867-24.612-0.122 6.276 23.799 18.242-4.811zM849.726 879.772l-9.282 16.425 0.075 0.043 9.207-16.467zM964.326 873.323v-18.867h-3.77l-3.482 1.451 7.251 17.417zM974.276 873.323l18.814 1.408 1.517-20.275h-20.331v18.867zM917.417 819.691c-0.145-13.647-3.281-28.288-14.298-38.278l-25.348 27.951c-0.224-0.203 0.211 0.038 0.751 1.668 0.57 1.728 1.118 4.614 1.165 9.062l37.73-0.403zM903.283 781.562c-9.903-9.193-22.893-12.226-35.684-12.226v37.734c7.351 0 9.591 1.756 10.007 2.144l25.677-27.652zM867.599 769.335c-14.050 0-27.119 4.401-37.342 14.419l26.411 26.95c2.059-2.018 5.082-3.635 10.931-3.635v-37.734zM830.396 783.62c-9.286 8.915-14.884 20.141-16.973 32.843l37.233 6.121c0.86-5.231 2.876-8.868 5.873-11.744l-26.133-27.219zM831.934 838.389l66.513 0.369 0.209-37.732-66.513-0.369-0.209 37.732zM959.377 905.086c-4.134 3.136-14.223 7.501-33.376 11.718l8.113 36.851c19.906-4.382 36.964-10.089 48.058-18.5l-22.795-30.069zM925.89 916.828c-18.278 4.139-35.857 6.167-52.764 6.167v37.734c19.94 0 40.318-2.396 61.097-7.1l-8.333-36.802zM873.126 922.995c-17.779 0-32.422-0.838-44.098-2.411l-5.033 37.395c13.873 1.869 30.306 2.75 49.131 2.75v-37.734zM829.028 920.585c-11.454-1.542-22.846-4.301-34.191-8.305l-12.559 35.582c13.711 4.838 27.622 8.222 41.717 10.118l5.033-37.395zM794.991 912.335c-11.029-4.002-20.004-8.853-27.194-14.368l-22.965 29.937c10.743 8.243 23.264 14.814 37.293 19.902l12.866-35.471zM768.026 898.144c-6.477-5.129-11.981-11.906-16.393-20.73l-33.749 16.875c6.643 13.286 15.511 24.563 26.72 33.438l23.422-29.583zM751.669 877.489c-3.968-8.026-6.336-18.357-6.336-31.618h-37.732c0 17.692 3.159 34.016 10.246 48.343l33.822-16.725zM745.333 845.871c0-13.274 2.394-24.994 6.916-35.418l-34.613-15.023c-6.778 15.616-10.035 32.514-10.035 50.441h37.732zM752.25 810.453c4.757-10.961 10.583-19.066 17.165-24.926l-25.092-28.181c-11.351 10.108-20.143 23.006-26.686 38.084l34.613 15.023zM769.423 785.519c20.277-18.080 51.209-28.565 95.78-28.565v-37.732c-50.007 0-91.3 11.748-120.892 38.133l25.111 28.164zM865.203 756.954c20 0 38.863 3.812 56.749 11.401l14.737-34.737c-22.647-9.609-46.53-14.396-71.486-14.396v37.732zM921.775 768.277c16.695 7.285 27.486 17.611 33.875 30.752l33.935-16.497c-10.807-22.231-28.881-38.436-52.719-48.838l-15.091 34.583zM955.701 799.136c3.524 7.136 5.419 15.234 5.419 24.625h37.734c0-14.684-3.019-28.57-9.321-41.333l-33.833 16.708zM961.171 822.394l-2.212 30.4 37.634 2.737 2.212-30.4-37.634-2.737zM977.869 835.296l-149.421-0.738-0.186 37.732 149.421 0.738 0.186-37.732zM810.112 858.236c4.41 16.725 15.198 29.406 30.332 37.961l18.566-32.849c-7.467-4.22-10.927-9.103-12.414-14.733l-36.484 9.621zM840.518 896.239c15.302 8.557 34.438 11.981 55.823 11.981v-37.734c-17.922 0-29.862-2.963-37.408-7.181l-18.415 32.934zM896.341 908.22c22.946 0 48.149-6.204 75.236-17.478l-14.502-34.835c-24.256 10.097-44.375 14.579-60.734 14.579v37.734zM964.326 892.19h9.95v-37.734h-9.95v37.734zM955.462 871.915l-3.501 46.799 37.628 2.814 3.501-46.797-37.628-2.816z"></path>
</svg>
