<!-- Generated by IcoMoon.io -->
<svg version="1.1" xmlns="http://www.w3.org/2000/svg" width="1024" height="1024" viewBox="0 0 1024 1024">
<title></title>
<g id="icomoon-ignore">
</g>
<path d="M764.288 214.591l-252.288 252.289-252.287-252.289c-6.068-5.553-14.044-8.55-22.267-8.368s-16.059 3.53-21.875 9.346c-5.816 5.816-9.164 13.652-9.346 21.875s2.815 16.199 8.368 22.267l252.159 252.289-252.223 252.224c-3.081 2.934-5.545 6.458-7.245 10.362-1.7 3.901-2.603 8.106-2.656 12.362s0.746 8.48 2.349 12.422c1.603 3.942 3.979 7.526 6.986 10.538 3.008 3.014 6.587 5.392 10.528 7.002s8.164 2.413 12.42 2.368c4.256-0.048 8.46-0.944 12.365-2.64 3.905-1.693 7.431-4.154 10.372-7.229l252.351-252.224 252.288 252.288c6.067 5.552 14.045 8.55 22.269 8.368 8.221-0.182 16.058-3.53 21.875-9.347 5.814-5.814 9.162-13.651 9.344-21.875 0.182-8.221-2.816-16.198-8.368-22.266l-252.288-252.288 252.288-252.353c3.082-2.937 5.546-6.46 7.245-10.362 1.702-3.902 2.605-8.105 2.656-12.361 0.054-4.256-0.746-8.48-2.349-12.424s-3.978-7.526-6.986-10.538c-3.008-3.012-6.589-5.393-10.528-7.001-3.942-1.609-8.163-2.413-12.419-2.367s-8.461 0.944-12.365 2.638c-3.907 1.695-7.434 4.153-10.374 7.23v0.064z"></path>
</svg>
