<!-- Generated by IcoMoon.io -->
<svg version="1.1" xmlns="http://www.w3.org/2000/svg" width="1024" height="1024" viewBox="0 0 1024 1024">
<title></title>
<g id="icomoon-ignore">
</g>
<path d="M899.445 55.258l-387.445 387.447-387.443-387.447c-9.319-8.526-21.566-13.128-34.194-12.85s-24.663 5.421-33.596 14.354c-8.934 8.934-14.071 20.968-14.354 33.596s4.324 24.876 12.85 34.194l387.25 387.447-387.347 387.348c-4.733 4.508-8.517 9.918-11.124 15.912-2.612 5.989-3.996 12.449-4.080 18.984s1.148 13.022 3.608 19.079c2.46 6.052 6.109 11.558 10.728 16.185 4.621 4.631 10.117 8.283 16.169 10.755s12.536 3.705 19.075 3.635c6.535-0.075 12.993-1.448 18.989-4.053 5.995-2.6 11.414-6.38 15.929-11.103l387.545-387.348 387.445 387.445c9.317 8.525 21.567 13.128 34.198 12.85 12.625-0.278 24.661-5.421 33.596-14.356 8.931-8.931 14.070-20.966 14.351-33.596 0.278-12.625-4.326-24.874-12.85-34.193l-387.445-387.445 387.445-387.548c4.734-4.513 8.519-9.922 11.124-15.912 2.615-5.99 4-12.447 4.080-18.982 0.085-6.535-1.148-13.022-3.608-19.082s-6.107-11.558-10.728-16.185c-4.621-4.628-10.117-8.284-16.169-10.753s-12.536-3.705-19.074-3.633-12.995 1.448-18.989 4.050c-5.999 2.604-11.415 6.378-15.932 11.104v0.097z"></path>
</svg>
