<!-- Generated by IcoMoon.io -->
<svg version="1.1" xmlns="http://www.w3.org/2000/svg" width="1024" height="1024" viewBox="0 0 1024 1024">
<title></title>
<g id="icomoon-ignore">
</g>
<path fill="#f8d24e" d="M1024 512c0 282.77-229.23 512-512 512s-512-229.23-512-512c0-282.77 229.23-512 512-512s512 229.23 512 512z"></path>
<path fill="#000" d="M411.793 588.011l-10.165 133.421c14.541 0 20.838-5.831 28.392-12.83l68.174-60.808 141.264 96.551c25.907 13.475 44.162 6.379 51.149-22.245l92.726-405.516 0.027-0.024c8.216-35.743-13.851-49.721-39.093-40.952l-545.038 194.754c-37.198 13.475-36.635 32.828-6.323 41.598l139.343 40.451 323.671-189.018c15.23-9.415 29.082-4.207 17.688 5.207l-261.816 219.41z"></path>
</svg>
