<!-- Generated by IcoMoon.io -->
<svg version="1.1" xmlns="http://www.w3.org/2000/svg" width="1024" height="1024" viewBox="0 0 1024 1024">
<title></title>
<g id="icomoon-ignore">
</g>
<path fill="#f8d24e" d="M1024 512c0 282.77-229.23 512-512 512s-512-229.23-512-512c0-282.77 229.23-512 512-512s512 229.23 512 512z"></path>
<path fill="#000" d="M512 210.824c-165.424 0-301.176 135.752-301.176 301.176 0 141.161 99.054 269.393 230.587 301.176v-99.641c-13.032 2.852-25.025 2.936-38.295-0.976-17.797-5.253-32.259-17.107-42.996-35.186-6.843-11.544-18.971-24.064-31.621-23.145l-3.102-35.156c27.356-2.343 51.025 16.67 65.072 40.273 6.24 10.496 13.423 16.649 22.642 19.369 8.912 2.626 18.48 1.364 29.627-2.572 2.801-22.32 13.026-30.675 20.751-42.442v-0.018c-78.447-11.701-109.71-53.317-122.118-86.167-16.444-43.616-7.62-98.105 21.456-132.542 0.566-0.672 1.584-2.427 1.19-3.653-13.33-40.27 2.915-73.583 3.512-77.119 15.387 4.551 17.887-4.578 66.834 25.16l8.46 5.084c3.539 2.108 2.427 0.907 5.966 0.638 20.435-5.551 41.978-8.617 63.205-8.891 21.39 0.274 42.794 3.34 64.078 9.117l2.738 0.274c-0.238-0.036 0.744-0.172 2.394-1.157 61.145-37.036 58.949-24.931 75.345-30.262 0.593 3.539 16.622 37.394 3.433 77.155-1.78 5.478 53.010 55.648 22.642 136.18-12.408 32.864-43.668 74.481-122.115 86.182v0.018c10.056 15.327 22.136 23.48 22.073 55.097v124.38c131.539-31.783 230.587-160.015 230.587-301.176 0.006-165.424-135.746-301.176-301.17-301.176v0z"></path>
</svg>
