<?xml version="1.0" standalone="yes"?>
<svg xmlns="http://www.w3.org/2000/svg" width="452" height="452">
<path style="fill:#010101; stroke:none;" d="M0 0L0 204L1 204C1.2209 123.948 66.9026 47.945 137 17.7191C157.408 8.91907 181.571 1.06177 204 1L184 0L143 0L0 0z"/>
<path style="fill:#a7a9ad; stroke:none;" d="M204 0.424377C166.49 5.36386 131.73 16.18 100 37.3333C75.4484 53.7011 54.4278 74.4683 38.0008 99C-29.3898 199.639 -4.75159 341.251 95 411.279C117.197 426.862 141.765 438.349 168 445.265C196.197 452.699 227.086 454.405 256 450.715C287.847 446.65 318.782 435.529 346 418.575C367.262 405.331 386.772 388.685 402.335 369C484.191 265.459 461.843 110.235 351 36.6674C329.154 22.1683 304.627 11.3191 279 5.57639C255.112 0.223358 228.451 -2.7955 204 0.424377z"/>
<path style="fill:#010101; stroke:none;" d="M248 0L248 1C328.052 1.22052 404.055 66.9029 434.281 137C443.081 157.408 450.938 181.571 451 204L452 204L452 0L248 0M215 16.4244C164.484 23.0571 120.245 37.4666 82 73.0895C62.7378 91.0313 45.9528 113.8 35.4244 138C22.4546 167.812 14.6074 200.299 16.0394 233C21.4648 356.902 133.434 450.228 256 433.718C359.628 419.758 440.543 323.637 435.961 219C431.799 123.981 363.177 39.5486 269 20.6003C251.836 17.1469 232.494 14.1275 215 16.4244z"/>
<path style="fill:#a7a9ad; stroke:none;" d="M106 292L107 292C130.691 268.798 154.732 245.695 179 223.09C194.102 209.021 213.087 194.912 225 178L226 178L263 214.039L345 292C348.635 289.439 357.776 283.288 355.248 278.001C350.185 267.408 333.603 256.924 325 248.91C303.161 228.567 281.15 208.047 260 186.999C252.803 179.837 245.177 173.174 238 166C235.056 163.057 231.216 157.567 227 156.496C220.485 154.841 210.022 168.979 206 173C188.219 190.774 169.978 209.09 151 225.576C136.743 237.961 123.52 251.797 110 264.985C106.423 268.475 96.2068 274.46 96.2068 280C96.2068 284.374 103.169 289.169 106 292z"/>
<path style="fill:#010101; stroke:none;" d="M0 248L0 452L204 452L204 451C126.657 450.787 51.213 388.314 20.3086 321C13.2596 305.646 8.04078 289.488 4.42438 273C2.70208 265.147 3.06466 255.287 0 248M451 248C450.938 270.429 443.081 294.592 434.281 315C404.055 385.097 328.052 450.779 248 451L248 452L452 452L452 309L452 268L451 248z"/>
</svg>
