<svg aria-hidden="true" style="position: absolute; width: 0; height: 0; overflow: hidden;" version="1.1" xmlns="http://www.w3.org/2000/svg" xmlns:xlink="http://www.w3.org/1999/xlink">
<defs>

<symbol id="menu-burger" viewBox="0 0 32 32">
<path stroke-linejoin="miter" stroke-linecap="round" stroke-miterlimit="4" stroke-width="2" d="M6 10h20"></path>
<path stroke-linejoin="miter" stroke-linecap="round" stroke-miterlimit="4" stroke-width="2" d="M6 16h20"></path>
<path stroke-linejoin="miter" stroke-linecap="round" stroke-miterlimit="4" stroke-width="2" d="M6 22h20"></path>
</symbol>

<symbol id="to-top" viewBox="0 0 32 32">
<path d="M26.851 23.75c-0.431 0-0.861-0.179-1.167-0.529l-9.683-11.067-9.683 11.067c-0.564 0.644-1.543 0.71-2.187 0.146s-0.709-1.543-0.146-2.187l10.85-12.4c0.294-0.336 0.72-0.529 1.166-0.529s0.872 0.193 1.166 0.529l10.85 12.4c0.564 0.644 0.499 1.623-0.146 2.187-0.294 0.257-0.658 0.384-1.020 0.384z"></path>
</symbol>

<symbol id="cursor" viewBox="0 0 32 32">
<path stroke-linejoin="miter" stroke-linecap="butt" stroke-miterlimit="4" stroke-width="1.3333" d="M12.031 9.341l7.289 6.803c1.247 1.164 0.558 3.255-1.138 3.449l-2.745 0.314c-0.689 0.079-1.336 0.37-1.851 0.834l-1.582 1.424c-1.287 1.158-3.338 0.245-3.338-1.487v-9.876c0-1.749 2.086-2.655 3.365-1.462z"></path>
</symbol>
<symbol id="advantages-cow" viewBox="0 0 32 32">
<path fill="#f8d24e" style="fill: var(--color1, #f8d24e)" d="M16 0c8.837 0 16 7.163 16 16s-7.163 16-16 16c-8.837 0-16-7.163-16-16s7.163-16 16-16z"></path>
<path fill="#131313" style="fill: var(--color2, #131313)" d="M8.921 4.618c-0.188 0.162-0.725 1.282-0.917 1.894-0.229 0.758-0.308 1.326-0.276 2.11 0.042 1.12 0.323 1.969 0.944 2.857 0.162 0.233 0.292 0.433 0.292 0.449 0 0.011-0.099 0.022-0.224 0.022-0.537 0-1.543 0.179-2.314 0.411-1.225 0.368-1.944 1.012-1.944 1.731 0 0.254 0.229 0.687 0.474 0.909 0.474 0.427 1.512 0.833 2.627 1.028 0.386 0.070 1.532 0.189 1.788 0.195 0.047 0 0.063 0.249 0.063 1.066 0 0.703 0.026 1.25 0.078 1.585 0.188 1.201 0.772 2.473 1.543 3.371l0.266 0.308-0.177 0.287c-0.261 0.406-0.36 0.714-0.391 1.174-0.078 1.104 0.61 2.083 1.939 2.77 2.533 1.315 6.469 0.801 7.944-1.039 0.719-0.898 0.803-1.926 0.235-2.857l-0.177-0.287 0.318-0.384c0.594-0.714 0.98-1.428 1.272-2.332 0.245-0.768 0.339-1.51 0.339-2.684 0-0.536 0.016-0.979 0.042-0.979 0.24-0.005 1.392-0.13 1.757-0.195 1.121-0.195 2.137-0.595 2.627-1.028 0.245-0.222 0.474-0.655 0.474-0.909 0-0.801-0.813-1.45-2.325-1.84-0.495-0.13-1.428-0.287-1.882-0.314l-0.214-0.016 0.235-0.325c0.292-0.395 0.657-1.163 0.798-1.667 0.396-1.455 0.151-3.149-0.698-4.767-0.355-0.671-0.599-0.828-0.886-0.563-0.11 0.103-0.156 0.243-0.261 0.752-0.323 1.618-0.923 2.9-1.798 3.847l-0.386 0.422h-8.246l-0.344-0.373c-0.855-0.941-1.475-2.272-1.798-3.896-0.104-0.509-0.151-0.649-0.261-0.752-0.172-0.157-0.339-0.152-0.532 0.016zM9.588 7.827c0.276 0.606 0.62 1.174 1.027 1.699l0.323 0.417-0.339 0.254c-0.318 0.243-0.615 0.59-0.844 0.985l-0.099 0.179-0.25-0.341c-0.855-1.18-1.069-2.624-0.615-4.123 0.219-0.725 0.214-0.72 0.412-0.092 0.094 0.303 0.271 0.763 0.386 1.023zM23.157 6.685c0.214 0.644 0.297 1.158 0.297 1.823 0 0.985-0.261 1.818-0.808 2.565l-0.245 0.335-0.182-0.308c-0.214-0.379-0.579-0.774-0.912-1.001-0.141-0.092-0.25-0.184-0.25-0.195 0-0.016 0.099-0.141 0.224-0.276 0.579-0.644 1.199-1.802 1.506-2.797 0.094-0.308 0.188-0.563 0.203-0.563s0.094 0.189 0.167 0.417zM20.493 10.64c0.579 0.244 1.131 0.941 1.22 1.531 0.047 0.325 0.156 0.53 0.297 0.563 0.063 0.011 0.495 0.049 0.959 0.081 1.647 0.108 2.945 0.46 3.498 0.941 0.255 0.227 0.229 0.417-0.078 0.649-0.615 0.465-1.944 0.817-3.3 0.876-0.897 0.038-1.084 0.065-1.204 0.189-0.089 0.092-0.099 0.189-0.099 1.169 0 1.326-0.068 2.088-0.235 2.705-0.235 0.839-0.698 1.731-1.241 2.364l-0.224 0.26-0.464-0.276c-0.563-0.335-1.089-0.552-1.72-0.698-1.976-0.471-4.16-0.184-5.63 0.741l-0.339 0.216-0.214-0.254c-0.292-0.341-0.751-1.071-0.933-1.483-0.401-0.931-0.521-1.688-0.521-3.355 0-1.618 0.083-1.499-1.116-1.564-1.532-0.081-2.7-0.357-3.435-0.822-0.542-0.346-0.454-0.655 0.302-1.017 0.725-0.352 1.72-0.563 3.102-0.649 1.074-0.070 1.1-0.087 1.199-0.606 0.146-0.785 0.725-1.434 1.454-1.639 0.182-0.054 1.204-0.065 4.332-0.060l4.092 0.011 0.297 0.124zM17.564 21.84c1.277 0.314 2.231 0.898 2.643 1.623 0.099 0.168 0.141 0.341 0.162 0.606 0.021 0.33 0.005 0.411-0.12 0.682-0.579 1.228-2.705 2.040-4.869 1.856-2.601-0.216-4.311-1.666-3.638-3.089 0.365-0.768 1.6-1.504 2.903-1.721 0.214-0.032 0.427-0.070 0.469-0.081s0.511-0.011 1.042 0c0.725 0.016 1.074 0.049 1.407 0.124z"></path>
<path fill="#131313" style="fill: var(--color2, #131313)" d="M12.393 13.351c-0.323 0.108-0.542 0.249-0.834 0.541-0.255 0.243-0.276 0.53-0.063 0.703 0.198 0.162 0.386 0.141 0.625-0.070 0.302-0.265 0.537-0.373 0.829-0.373 0.292-0.005 0.516 0.097 0.829 0.373 0.24 0.211 0.427 0.233 0.626 0.070 0.104-0.087 0.136-0.157 0.136-0.319 0-0.168-0.036-0.243-0.219-0.427-0.516-0.519-1.282-0.72-1.929-0.498z"></path>
<path fill="#131313" style="fill: var(--color2, #131313)" d="M18.471 13.346c-0.334 0.124-0.761 0.406-0.933 0.617-0.167 0.206-0.172 0.438 0 0.611 0.172 0.184 0.381 0.173 0.631-0.032 0.615-0.509 1.074-0.525 1.642-0.054 0.146 0.124 0.313 0.222 0.365 0.222 0.255 0 0.464-0.227 0.464-0.498 0-0.173-0.433-0.573-0.824-0.763-0.433-0.211-0.949-0.249-1.345-0.103z"></path>
<path fill="#131313" style="fill: var(--color2, #131313)" d="M13.149 23.361c-0.151 0.146-0.203 0.357-0.125 0.525 0.057 0.135 0.146 0.189 0.506 0.287 0.162 0.043 0.229 0.097 0.287 0.233 0.073 0.179 0.078 0.179 0.48 0.195l0.401 0.016v-0.151c-0.005-0.216-0.125-0.53-0.281-0.747-0.182-0.249-0.5-0.411-0.86-0.444-0.245-0.022-0.308-0.011-0.407 0.087z"></path>
<path fill="#131313" style="fill: var(--color2, #131313)" d="M18.127 23.323c-0.261 0.070-0.636 0.422-0.74 0.698-0.047 0.124-0.094 0.346-0.099 0.492-0.010 0.233 0.010 0.287 0.136 0.4 0.308 0.271 0.714 0.060 0.714-0.373 0-0.211 0.156-0.357 0.433-0.411 0.292-0.054 0.396-0.173 0.401-0.449 0-0.363-0.323-0.503-0.844-0.357z"></path>
</symbol>
<symbol id="advantages-ice-crema" viewBox="0 0 32 32">
<path fill="#f8d24e" style="fill: var(--color1, #f8d24e)" d="M16 0c8.837 0 16 7.163 16 16s-7.163 16-16 16c-8.837 0-16-7.163-16-16s7.163-16 16-16z"></path>
<path fill="#000" style="fill: var(--color3, #000)" d="M16.078 4.557c0.058 0.154 0.174 0.901 0.174 1.133 0 0.574-0.212 1.109-0.602 1.528-0.323 0.347-0.646 0.54-1.422 0.853-0.863 0.352-1.219 0.564-1.624 0.964-0.41 0.41-0.651 0.858-0.737 1.383-0.096 0.574 0 0.978 0.294 1.21l0.149 0.116-0.236 0.149c-0.477 0.313-1.345 1.051-1.494 1.277-0.289 0.434-0.26 0.839 0.067 1.003l0.154 0.077-0.174 0.164c-0.26 0.246-0.313 0.415-0.275 0.858 0.024 0.294 0.014 0.453-0.053 0.694-0.082 0.313-0.082 0.318 0.024 0.54 0.106 0.217 0.405 0.492 0.675 0.607 0.13 0.058 0.135 0.077 0.164 0.521 0.014 0.256 0.039 1.070 0.058 1.812 0.014 0.742 0.048 1.422 0.077 1.504 0.024 0.087 0.116 0.202 0.198 0.26 0.28 0.193 0.472 0.4 0.598 0.641 0.14 0.275 0.294 0.95 0.762 3.282l0.328 1.639 0.203 0.193c0.386 0.381 1.123 0.554 2.338 0.554 1.219 0 1.947-0.169 2.333-0.549l0.207-0.198 0.299-1.518c0.66-3.321 0.718-3.504 1.234-3.914 0.159-0.13 0.313-0.289 0.342-0.362 0.034-0.082 0.068-0.713 0.092-1.668 0.019-0.848 0.048-1.687 0.068-1.865l0.029-0.323 0.313-0.236c0.395-0.304 0.549-0.578 0.549-1.003-0.005-0.501-0.333-1.051-0.93-1.542l-0.284-0.231 0.14-0.198c0.583-0.805 0.217-1.918-0.868-2.661l-0.328-0.227 0.12-0.125c0.535-0.574 0.622-2.285 0.174-3.475-0.27-0.709-0.887-1.48-1.644-2.049-0.371-0.28-1.393-0.897-1.485-0.897-0.019 0-0.019 0.034-0.005 0.077zM17.466 6.239c0.256 0.251 0.564 0.593 0.684 0.766 0.718 1.003 0.901 2.261 0.468 3.186-0.174 0.376-0.694 0.935-1.176 1.268-0.737 0.511-2.396 1.369-3.552 1.841-1.861 0.757-2.94 0.901-3.066 0.405-0.048-0.188 0.092-0.337 0.684-0.733 0.535-0.366 2.935-2.15 2.979-2.222 0.014-0.019-0.231 0.092-0.54 0.246-1.046 0.53-1.542 0.429-1.518-0.308 0.014-0.535 0.4-1.142 0.935-1.489 0.135-0.087 0.554-0.28 0.94-0.434 1.268-0.511 1.653-0.771 2.082-1.412 0.256-0.381 0.535-1.085 0.554-1.383 0.005-0.106 0.024-0.188 0.039-0.188s0.231 0.207 0.487 0.458zM18.782 11.715c0.352 0.198 0.718 0.535 0.877 0.8 0.28 0.477 0.135 0.954-0.468 1.562-0.656 0.665-1.774 1.301-3.003 1.706-1.133 0.371-2.217 0.545-3.769 0.598l-0.964 0.034 0.627 0.039c0.81 0.053 2.376 0.005 2.984-0.092 1.615-0.256 2.988-0.766 3.972-1.47 0.222-0.159 0.453-0.289 0.516-0.289 0.159 0 0.853 0.665 0.993 0.945 0.077 0.159 0.096 0.275 0.082 0.429-0.072 0.641-0.853 0.983-2.738 1.21-2.304 0.275-5.317 0.005-6.604-0.588-0.607-0.28-0.709-0.439-0.554-0.863 0.048-0.135 0.058-0.294 0.039-0.521-0.024-0.299-0.019-0.337 0.087-0.448 0.241-0.26 0.646-0.41 2.13-0.786 0.521-0.135 1.229-0.347 1.567-0.472 0.819-0.299 2.357-1.075 3.070-1.552 0.67-0.443 0.766-0.463 1.157-0.241zM12.381 17.615c1.012 0.294 1.909 0.381 3.576 0.347 1.253-0.024 2.024-0.101 3.138-0.299 0.227-0.039 0.424-0.072 0.448-0.072 0.053 0 0.039 1.851-0.019 2.338-0.063 0.516-0.202 0.916-0.352 1.012-0.154 0.101-0.925 0.207-1.957 0.265-2.116 0.116-4.29 0-4.965-0.27-0.366-0.149-0.405-0.342-0.41-2.13 0-1.191 0.010-1.355 0.072-1.33 0.039 0.014 0.251 0.077 0.468 0.14zM13.523 21.712c0.347 0.043 0.723 0.087 0.839 0.101l0.207 0.024-0.183 0.202c-0.236 0.256-0.598 0.766-0.728 1.027-0.149 0.299-0.198 0.318-0.419 0.198l-0.188-0.106-0.106-0.656c-0.058-0.357-0.12-0.699-0.135-0.757-0.043-0.125-0.087-0.125 0.713-0.034zM18.662 21.659c0 0.010-0.024 0.135-0.048 0.275-0.029 0.145-0.149 0.93-0.27 1.75-0.246 1.711-0.41 2.516-0.559 2.786-0.207 0.361-0.704 0.574-1.509 0.641-0.313 0.024-1.258-0.039-1.311-0.087-0.039-0.043 0.791-1.070 0.921-1.138 0.12-0.068 0.154-0.058 0.564 0.154 0.477 0.251 0.718 0.289 0.718 0.13s-0.125-0.313-0.434-0.525c-0.284-0.202-0.386-0.318-0.386-0.453 0-0.039 0.14-0.255 0.308-0.482s0.415-0.588 0.54-0.805l0.236-0.39 0.217 0.029c0.439 0.063 0.554 0.058 0.54-0.039-0.010-0.048-0.092-0.188-0.183-0.304-0.092-0.12-0.164-0.241-0.164-0.265 0-0.092 0.448-0.935 0.593-1.113 0.125-0.154 0.227-0.231 0.227-0.164zM15.649 22.044c0.241 0.159 1.147 0.945 1.205 1.041 0.024 0.043-0.906 1.499-1.089 1.706-0.019 0.024-0.12-0.024-0.222-0.101-0.101-0.082-0.477-0.342-0.839-0.578l-0.651-0.429 0.39-0.66c0.694-1.162 0.68-1.142 0.829-1.142 0.077 0 0.246 0.072 0.376 0.164zM17.476 22.218c-0.169 0.207-0.308 0.337-0.366 0.337-0.125 0-0.328-0.111-0.67-0.362l-0.284-0.207 0.569-0.034c0.308-0.014 0.607-0.034 0.66-0.043 0.386-0.063 0.386-0.058 0.092 0.308zM13.832 24.536c0.443 0.174 1.195 0.583 1.412 0.766 0.154 0.125 0.154 0.135 0.092 0.289-0.039 0.087-0.169 0.318-0.299 0.516-0.125 0.193-0.27 0.434-0.323 0.535-0.154 0.299-0.202 0.323-0.521 0.236-0.342-0.101-0.525-0.275-0.622-0.588-0.13-0.439-0.337-1.677-0.313-1.87 0.010-0.072 0.212-0.029 0.574 0.116z"></path>
</symbol>
<symbol id="advantages-weight" viewBox="0 0 32 32">
<path fill="#f8d24e" style="fill: var(--color1, #f8d24e)" d="M16 0c8.837 0 16 7.163 16 16s-7.163 16-16 16c-8.837 0-16-7.163-16-16s7.163-16 16-16z"></path>
<path fill="#000" style="fill: var(--color3, #000)" d="M14.688 4.874c-2.861 0.424-5.218 2.013-6.085 4.093-0.277 0.657-0.351 1.061-0.351 1.853 0.005 0.585 0.027 0.802 0.117 1.118 0.186 0.621 0.319 0.937 0.596 1.382l0.255 0.414-0.287 0.352c-2.271 2.826-2.521 6.8-0.628 9.931 0.707 1.175 1.862 2.329 2.989 3.001l0.335 0.197 9.175-0.078 0.218-0.119c0.761-0.43 1.835-1.387 2.436-2.163 0.904-1.18 1.495-2.556 1.745-4.047 0.085-0.533 0.085-2.111-0.005-2.613-0.271-1.547-0.851-2.872-1.766-4.047-0.176-0.223-0.314-0.409-0.314-0.424 0-0.010 0.096-0.171 0.207-0.352 0.261-0.414 0.495-0.947 0.622-1.413 0.144-0.518 0.144-1.811 0-2.329-0.511-1.837-2.042-3.369-4.207-4.212-0.606-0.238-1.644-0.492-2.314-0.574-0.622-0.072-2.159-0.057-2.739 0.031zM17.927 5.717c2.84 0.554 4.92 2.293 5.303 4.435 0.085 0.481 0.032 1.299-0.112 1.754-0.144 0.445-0.41 0.968-0.723 1.413-0.128 0.181-0.234 0.388-0.234 0.455s0.112 0.243 0.271 0.419c1.33 1.475 2.032 3.322 2.032 5.32-0.005 2.272-0.878 4.264-2.558 5.827-0.287 0.269-0.697 0.605-0.915 0.75l-0.399 0.269-8.792 0.036-0.34-0.217c-1.234-0.802-2.346-2.127-2.963-3.534-0.777-1.78-0.856-3.845-0.223-5.698 0.335-0.963 0.782-1.749 1.463-2.577 0.277-0.331 0.404-0.528 0.404-0.621 0-0.078-0.138-0.331-0.319-0.595-0.638-0.926-0.899-1.956-0.745-2.929 0.16-0.983 0.606-1.791 1.431-2.593 1.074-1.040 2.574-1.728 4.335-1.987 0.729-0.109 2.34-0.067 3.085 0.072z"></path>
<path fill="#000" style="fill: var(--color3, #000)" d="M14.927 6.628c-2.181 0.357-3.888 1.568-4.446 3.157-0.128 0.357-0.149 0.497-0.149 1.009s0.021 0.652 0.149 1.009c0.080 0.228 0.229 0.543 0.33 0.704 0.277 0.445 0.399 0.461 0.947 0.129 0.819-0.502 1.761-0.869 2.739-1.071 0.66-0.135 1.925-0.186 2.643-0.104 1.122 0.129 2.34 0.533 3.314 1.107 0.277 0.16 0.559 0.295 0.628 0.295 0.404 0 0.92-1.164 0.92-2.070 0-2.013-1.925-3.736-4.654-4.166-0.58-0.093-1.862-0.093-2.42 0zM17.56 7.456c0.915 0.197 1.755 0.569 2.388 1.061 0.851 0.657 1.308 1.573 1.234 2.458-0.027 0.352-0.16 0.828-0.239 0.88-0.021 0.010-0.319-0.114-0.66-0.28-0.707-0.341-1.511-0.616-2.324-0.792-0.495-0.104-0.702-0.119-1.808-0.114-1.090 0-1.319 0.016-1.792 0.114-0.819 0.176-1.457 0.393-2.244 0.766-0.793 0.378-0.75 0.383-0.894-0.083-0.186-0.605-0.069-1.408 0.293-2.013 0.191-0.321 0.718-0.854 1.101-1.118 0.729-0.502 1.367-0.73 2.739-0.978 0.282-0.052 1.846 0.021 2.207 0.098z"></path>
<path fill="#000" style="fill: var(--color3, #000)" d="M16.693 14.132c-0.149 0.186-0.149 0.362 0.005 0.512 0.101 0.098 0.202 0.124 0.569 0.15 0.713 0.052 1.394 0.259 2.005 0.611 0.436 0.259 1.101 0.885 1.399 1.335 0.441 0.647 0.745 1.573 0.745 2.256 0 0.238 0.021 0.31 0.133 0.414 0.17 0.171 0.394 0.171 0.558 0 0.117-0.119 0.122-0.15 0.090-0.657-0.149-2.505-2.292-4.595-4.856-4.735l-0.532-0.031-0.117 0.145z"></path>
</symbol>
<symbol id="arrow-angle-to-right" viewBox="0 0 32 32">
<path stroke-linejoin="round" stroke-linecap="round" stroke-miterlimit="4" stroke-width="5.3333" d="M10.667 5.333l13.2 10.667-13.2 10.667"></path>
</symbol>
<symbol id="arrow-default" viewBox="0 0 32 32">
<path d="M31.771 16.552c0.305-0.305 0.305-0.799 0-1.104l-4.967-4.967c-0.305-0.305-0.799-0.305-1.104 0s-0.305 0.799 0 1.104l4.415 4.415-4.415 4.415c-0.305 0.305-0.305 0.799 0 1.104s0.799 0.305 1.104 0l4.967-4.967zM0 16.78h31.22v-1.561h-31.22v1.561z"></path>
</symbol>
<symbol id="arrow-hover" viewBox="0 0 32 32">
<path d="M31.816 16.444c0.245-0.245 0.245-0.642 0-0.887l-3.993-3.993c-0.245-0.245-0.642-0.245-0.887 0s-0.245 0.642 0 0.887l3.549 3.549-3.549 3.549c-0.245 0.245-0.245 0.642 0 0.887s0.642 0.245 0.887 0l3.993-3.993zM0 16.627h31.373v-1.255h-31.373v1.255z"></path>
</symbol>
<symbol id="arrow-focus" viewBox="0 0 32 32">
<path d="M31.422 16.653c0.36-0.36 0.36-0.945 0-1.305l-5.874-5.874c-0.36-0.361-0.945-0.361-1.305 0s-0.36 0.945 0 1.305l5.222 5.222-5.222 5.222c-0.36 0.36-0.36 0.945 0 1.305s0.945 0.36 1.305 0l5.874-5.874zM0 16.923h30.769v-1.846h-30.769v1.846z"></path>
</symbol>
<symbol id="logo" viewBox="0 0 32 32">
<path d="M16.325 14.283c1.532-4.11-1.641-6.36-3.745-7.839-0.402-0.302-0.804-0.584-1.13-0.843-0.582-0.486-1.011-1.126-1.236-1.846s-0.235-1.488-0.031-2.213c0.021-0.076 0.020-0.156-0.001-0.232s-0.065-0.144-0.123-0.197c-0.058-0.053-0.131-0.090-0.209-0.105s-0.159-0.010-0.234 0.017c-0.708 0.277-1.367 0.665-1.951 1.149-0.561 0.427-1.015 0.976-1.328 1.604s-0.476 1.318-0.478 2.018c-0.397 0.309-0.747 0.672-1.042 1.077-0.541 0.73-0.812 1.621-0.768 2.524-0.644 0.585-1.124 1.325-1.393 2.148s-0.317 1.7-0.14 2.547c-0.256 0.153-0.455 0.385-0.565 0.66s-0.126 0.579-0.044 0.863c0.081 0.285 0.255 0.535 0.494 0.713s0.531 0.273 0.831 0.271h0.028v2.337c0 0.237 0.095 0.465 0.265 0.632s0.4 0.262 0.64 0.262h0.704l1.146 9.819c0.024 0.219 0.129 0.421 0.294 0.567s0.38 0.228 0.603 0.228h4.771c0.223-0.001 0.437-0.082 0.603-0.228s0.272-0.348 0.298-0.567l1.146-9.819h0.704c0.24 0 0.47-0.094 0.64-0.262s0.265-0.395 0.265-0.632v-2.337h0.028c0.364 0 0.713-0.143 0.97-0.397s0.402-0.599 0.402-0.959c0.002-0.179-0.033-0.357-0.102-0.523s-0.171-0.316-0.3-0.443l-0.012 0.004zM5.999 6.826c0.579 2.151 2.816 2.997 4.855 3.753 0.055 0.033 0.116 0.054 0.18 0.062s0.129 0 0.19-0.020c0.061-0.020 0.117-0.054 0.163-0.098s0.083-0.098 0.106-0.157c0.023-0.059 0.033-0.123 0.028-0.187s-0.023-0.125-0.055-0.181c-0.031-0.056-0.075-0.104-0.127-0.141s-0.112-0.062-0.176-0.074c-2.196-0.823-4.268-1.59-4.425-3.788-0.037-0.604 0.078-1.208 0.334-1.758s0.646-1.029 1.134-1.394c0.306-0.252 0.635-0.475 0.981-0.668-0.022 0.275-0.022 0.552 0 0.827 0.047 0.63 0.221 1.244 0.512 1.806s0.695 1.060 1.185 1.465c0.334 0.282 0.748 0.572 1.207 0.883 1.058 0.751 2.261 1.59 3.025 2.727 0.408 0.583 0.661 1.258 0.738 1.962s-0.026 1.417-0.3 2.072h-1.778c-3.664 0-7.876-1.002-8.708-3.808-0.165-0.577-0.164-1.189 0.004-1.766s0.495-1.096 0.945-1.498l-0.020-0.020zM9.298 20.377l1.344 1.328-1.344 1.328-1.343-1.336 1.343-1.32zM12.379 23.863l-1.11 1.097-1.343-1.328 1.343-1.324 1.166 1.149-0.056 0.405zM9.298 26.908l-1.343-1.328 1.343-1.328 1.344 1.328-1.344 1.328zM8.682 23.641l-1.343 1.328-1.118-1.105-0.048-0.398 1.167-1.149 1.343 1.324zM6.719 25.581l-0.269 0.266-0.068-0.604 0.338 0.338zM6.578 26.94l0.76-0.751 1.476 1.471c0.008 0.030 0.017 0.059 0.028 0.087h-2.172l-0.093-0.807zM11.26 26.189l0.76 0.751-0.093 0.795h-2.232l1.565-1.546zM12.145 25.847l-0.27-0.266 0.342-0.338-0.072 0.604zM12.548 22.373l-0.672-0.676 0.853-0.843-0.181 1.519zM11.256 21.093l-1.275-1.256h2.55l-1.275 1.256zM7.335 21.093l-1.275-1.256h2.55l-1.275 1.256zM11.679 29.584h-4.767c-0.007-0.001-0.014-0.004-0.019-0.009s-0.008-0.012-0.009-0.019l-0.113-0.954h5.052l-0.109 0.954c-0.001 0.008-0.005 0.015-0.011 0.020s-0.014 0.008-0.021 0.008h-0.004zM15.367 15.734h-1.4c-0.061-0.006-0.122 0.001-0.18 0.020s-0.111 0.050-0.157 0.090c-0.045 0.041-0.081 0.090-0.106 0.145s-0.038 0.115-0.038 0.175 0.013 0.12 0.038 0.175c0.025 0.055 0.061 0.105 0.106 0.145s0.099 0.071 0.157 0.090 0.119 0.026 0.18 0.020h0.499v2.337c-0.001 0.008-0.005 0.015-0.011 0.020s-0.014 0.008-0.021 0.008h-10.285c-0.008 0-0.016-0.003-0.021-0.008s-0.010-0.012-0.011-0.020v-2.337h7.968c0.109-0.010 0.209-0.060 0.283-0.14s0.114-0.184 0.114-0.291-0.041-0.212-0.114-0.291c-0.073-0.080-0.174-0.13-0.283-0.14h-8.849c-0.069 0.006-0.139-0.002-0.204-0.024s-0.126-0.057-0.177-0.103-0.092-0.102-0.12-0.165c-0.028-0.063-0.042-0.13-0.042-0.199s0.014-0.136 0.042-0.199c0.028-0.063 0.069-0.119 0.12-0.165s0.111-0.081 0.177-0.103 0.135-0.030 0.204-0.024h0.913c0.109-0.010 0.209-0.060 0.283-0.14s0.114-0.184 0.114-0.291c0-0.108-0.041-0.212-0.114-0.291s-0.174-0.13-0.283-0.14h-0.804c-0.115-0.605-0.096-1.227 0.055-1.824s0.432-1.155 0.822-1.634c0.282 0.867 1.006 2.051 2.816 2.993 1.701 0.879 3.954 1.328 6.693 1.328h1.609c0.069-0.006 0.139 0.002 0.204 0.024s0.126 0.057 0.177 0.103c0.051 0.046 0.092 0.102 0.12 0.165s0.042 0.13 0.042 0.199c0 0.068-0.014 0.136-0.042 0.199s-0.069 0.119-0.12 0.165-0.111 0.081-0.177 0.103c-0.066 0.022-0.135 0.030-0.204 0.024h0.028z"></path>
<path d="M18.578 27.17l-0.322 0.494 0.006 0.004 0.315-0.498zM22.045 27.337l0.589-0.013-0.015-0.682-0.673 0.114 0.099 0.581zM22.085 29.151l0.15 0.57 0.45-0.118-0.010-0.465-0.589 0.013zM17.536 29.237l0.132-0.575-0.004-0.001-0.129 0.575zM15.291 28.236l0.381-0.45-0.001-0.001-0.381 0.45zM14.479 26.393l0.59 0.003v-0.003h-0.59zM14.761 25.103l-0.529-0.26-0 0.001 0.529 0.259zM16.569 23.56l0.209 0.551 0.002-0.001-0.211-0.55zM22.361 23.411l0.588 0.046 0.039-0.498-0.485-0.12-0.142 0.572zM22.217 25.259l-0.11 0.579 0.646 0.123 0.051-0.656-0.588-0.046zM20.645 24.502c-0.885 0-1.629 0.095-2.172 0.333-0.278 0.122-0.532 0.295-0.716 0.538-0.19 0.251-0.281 0.543-0.281 0.852h1.179c0-0.069 0.017-0.107 0.041-0.14 0.031-0.040 0.1-0.104 0.251-0.171 0.316-0.139 0.862-0.234 1.697-0.234v-1.179zM17.476 26.226c0 0.607 0.272 1.107 0.78 1.438l0.644-0.988c-0.175-0.114-0.245-0.243-0.245-0.45h-1.179zM18.263 27.669c0.482 0.305 1.117 0.42 1.83 0.42v-1.179c-0.615 0-0.99-0.104-1.199-0.237l-0.631 0.996zM20.093 28.088c0.7 0 1.383-0.056 2.050-0.17l-0.197-1.163c-0.599 0.102-1.217 0.153-1.853 0.153v1.179zM21.455 27.351l0.040 1.814 1.179-0.026-0.040-1.814-1.179 0.026zM21.935 28.581c-0.674 0.177-1.418 0.268-2.234 0.268v1.179c0.904 0 1.749-0.101 2.534-0.307l-0.3-1.14zM19.701 28.849c-0.833 0-1.507-0.065-2.033-0.186l-0.265 1.149c0.641 0.148 1.41 0.217 2.297 0.217v-1.179zM17.665 28.662c-0.563-0.126-0.969-0.26-1.24-0.392l-0.517 1.060c0.389 0.19 0.896 0.348 1.5 0.483l0.257-1.151zM16.425 28.27c-0.291-0.142-0.54-0.304-0.752-0.484l-0.763 0.899c0.294 0.25 0.628 0.464 0.998 0.644l0.517-1.060zM15.671 27.785c-0.401-0.339-0.606-0.781-0.603-1.389l-1.179-0.006c-0.005 0.927 0.331 1.713 1.021 2.296l0.761-0.901zM15.069 26.393c0-0.396 0.078-0.736 0.222-1.030l-1.059-0.519c-0.232 0.473-0.342 0.994-0.342 1.549h1.179zM15.29 25.364c0.268-0.545 0.742-0.969 1.488-1.252l-0.418-1.102c-0.973 0.369-1.705 0.975-2.128 1.834l1.058 0.52zM16.78 24.111c0.784-0.301 1.66-0.456 2.633-0.456v-1.179c-1.1 0-2.12 0.175-3.056 0.534l0.423 1.101zM19.413 23.655c0.992 0 1.927 0.11 2.806 0.328l0.284-1.144c-0.979-0.243-2.010-0.363-3.090-0.363v1.179zM21.773 23.365l-0.144 1.848 1.176 0.092 0.144-1.848-1.176-0.092zM22.327 24.68c-0.613-0.116-1.175-0.177-1.682-0.177v1.179c0.415 0 0.901 0.050 1.462 0.157l0.22-1.159zM28.080 25.622l-0.003 0.59 0.599 0.003-0.006-0.599-0.59 0.006zM27.826 24.856l-0.401 0.432 0.005 0.005 0.396-0.437zM26.358 24.913l0.408 0.425 0.004-0.004-0.413-0.421zM26.001 25.61l-0.582-0.096-0.112 0.681 0.69 0.004 0.003-0.59zM30.337 28.754l0.356 0.47 0.212-0.161 0.020-0.265-0.588-0.044zM29.064 29.226l-0.127-0.576-0.003 0.001 0.13 0.575zM24.642 29.065l-0.201 0.554 0.005 0.002 0.196-0.556zM23.635 28.529l-0.366 0.462 0.007 0.005 0.359-0.468zM22.961 27.683l-0.529 0.261 0.001 0.002 0.527-0.264zM23.652 24.107l0.392 0.44 0-0-0.392-0.44zM29.041 23.468l0.236-0.54-0.006-0.002-0.23 0.543zM30.394 24.712l-0.53 0.258 0.002 0.003 0.529-0.261zM30.625 25.743l0.588 0.043 0.002-0.021v-0.021h-0.59zM30.556 26.693l-0.003 0.59 0.551 0.003 0.040-0.55-0.588-0.043zM25.886 26.67l0.003-0.59-0.769-0.004 0.196 0.744 0.57-0.15zM26.554 27.493l-0.29 0.513 0.002 0.001 0.288-0.515zM30.135 27.291v-0.59h-0.118l-0.109 0.045 0.227 0.544zM30.446 27.291l0.588 0.044 0.047-0.634h-0.635v0.59zM28.669 25.615c-0.005-0.426-0.103-0.884-0.447-1.196l-0.792 0.873c-0.007-0.006 0.007 0.001 0.023 0.052 0.018 0.054 0.035 0.144 0.036 0.283l1.179-0.013zM28.228 24.424c-0.309-0.287-0.715-0.382-1.115-0.382v1.179c0.23 0 0.3 0.055 0.313 0.067l0.802-0.864zM27.112 24.042c-0.439 0-0.847 0.138-1.167 0.451l0.825 0.842c0.064-0.063 0.159-0.114 0.342-0.114v-1.179zM25.95 24.488c-0.29 0.279-0.465 0.629-0.53 1.026l1.164 0.191c0.027-0.163 0.090-0.277 0.184-0.367l-0.817-0.851zM25.998 26.2l2.079 0.012 0.007-1.179-2.079-0.012-0.007 1.179zM29.981 28.284c-0.129 0.098-0.444 0.234-1.043 0.366l0.254 1.152c0.622-0.137 1.155-0.315 1.502-0.578l-0.712-0.94zM28.934 28.651c-0.571 0.129-1.121 0.193-1.649 0.193v1.179c0.623 0 1.26-0.075 1.909-0.222l-0.26-1.15zM27.285 28.844c-0.556 0-1.013-0.026-1.378-0.075l-0.157 1.169c0.434 0.058 0.947 0.086 1.535 0.086v-1.179zM25.907 28.768c-0.358-0.048-0.714-0.134-1.068-0.26l-0.392 1.112c0.428 0.151 0.863 0.257 1.304 0.316l0.157-1.169zM24.843 28.51c-0.345-0.125-0.625-0.277-0.85-0.449l-0.718 0.936c0.336 0.258 0.727 0.463 1.165 0.622l0.402-1.108zM24.001 28.067c-0.202-0.16-0.374-0.372-0.512-0.648l-1.055 0.527c0.208 0.415 0.485 0.768 0.835 1.045l0.732-0.924zM23.49 27.422c-0.124-0.251-0.198-0.574-0.198-0.988h-1.179c0 0.553 0.099 1.063 0.32 1.511l1.057-0.523zM23.292 26.433c0-0.415 0.075-0.781 0.216-1.107l-1.082-0.469c-0.212 0.488-0.314 1.016-0.314 1.576h1.179zM23.508 25.327c0.149-0.343 0.331-0.596 0.536-0.779l-0.784-0.881c-0.355 0.316-0.629 0.719-0.834 1.19l1.082 0.469zM24.044 24.547c0.634-0.565 1.6-0.893 2.993-0.893v-1.179c-1.563 0-2.853 0.367-3.778 1.192l0.785 0.88zM27.038 23.655c0.625 0 1.214 0.119 1.773 0.356l0.461-1.086c-0.708-0.3-1.454-0.45-2.234-0.45v1.179zM28.805 24.009c0.522 0.228 0.859 0.55 1.059 0.961l1.060-0.516c-0.338-0.695-0.903-1.201-1.647-1.526l-0.472 1.081zM29.866 24.973c0.11 0.223 0.169 0.476 0.169 0.77h1.179c0-0.459-0.094-0.893-0.291-1.292l-1.057 0.522zM30.037 25.7l-0.069 0.95 1.176 0.086 0.069-0.95-1.176-0.086zM30.558 26.103l-4.669-0.023-0.006 1.179 4.669 0.023 0.006-1.179zM25.316 26.82c0.138 0.523 0.475 0.919 0.948 1.186l0.58-1.027c-0.233-0.132-0.341-0.284-0.388-0.46l-1.14 0.301zM26.266 28.007c0.478 0.267 1.076 0.374 1.744 0.374v-1.179c-0.56 0-0.933-0.093-1.169-0.224l-0.575 1.029zM28.011 28.382c0.717 0 1.505-0.194 2.351-0.546l-0.453-1.089c-0.758 0.316-1.387 0.456-1.898 0.456v1.179zM30.135 27.881h0.311v-1.179h-0.311v1.179zM29.858 27.247l-0.109 1.462 1.176 0.088 0.109-1.462-1.176-0.088z"></path>
</symbol>
<symbol id="menu-burger" viewBox="0 0 32 32">
<path stroke-linejoin="miter" stroke-linecap="round" stroke-miterlimit="4" stroke-width="2" d="M6 10h20"></path>
<path stroke-linejoin="miter" stroke-linecap="round" stroke-miterlimit="4" stroke-width="2" d="M6 16h20"></path>
<path stroke-linejoin="miter" stroke-linecap="round" stroke-miterlimit="4" stroke-width="2" d="M6 22h20"></path>
</symbol>
<symbol id="menu-close" viewBox="0 0 32 32">
<path d="M28.108 1.727l-12.108 12.108-12.108-12.108c-0.291-0.266-0.674-0.41-1.069-0.402s-0.771 0.169-1.050 0.449c-0.279 0.279-0.44 0.655-0.449 1.050s0.135 0.777 0.402 1.069l12.102 12.108-12.105 12.105c-0.148 0.141-0.266 0.31-0.348 0.497s-0.125 0.389-0.127 0.593 0.036 0.407 0.113 0.596c0.077 0.189 0.191 0.361 0.335 0.506s0.316 0.259 0.505 0.336 0.392 0.116 0.596 0.114c0.204-0.002 0.406-0.045 0.593-0.127s0.357-0.199 0.498-0.347l12.111-12.105 12.108 12.108c0.291 0.266 0.674 0.41 1.069 0.402s0.771-0.169 1.050-0.449c0.279-0.279 0.44-0.655 0.448-1.050s-0.135-0.777-0.402-1.069l-12.108-12.108 12.108-12.111c0.148-0.141 0.266-0.31 0.348-0.497s0.125-0.389 0.128-0.593c0.003-0.204-0.036-0.407-0.113-0.596s-0.191-0.361-0.335-0.506c-0.144-0.145-0.316-0.259-0.505-0.336s-0.392-0.116-0.596-0.114-0.406 0.045-0.593 0.127c-0.187 0.081-0.357 0.199-0.498 0.347v0.003z"></path>
</symbol>
<symbol id="subscribe-facebook" viewBox="0 0 32 32">
<path fill="#f8d24e" style="fill: var(--color1, #f8d24e)" d="M16 32c8.837 0 16-7.163 16-16s-7.163-16-16-16c-8.837 0-16 7.163-16 16s7.163 16 16 16z"></path>
<path d="M20.446 15.982h-2.61v9.619h-3.955v-9.619h-1.881v-3.38h1.881v-2.187c0-1.564 0.739-4.014 3.99-4.014l2.929 0.012v3.281h-2.125c-0.349 0-0.839 0.175-0.839 0.921v1.989h2.955l-0.346 3.377z"></path>
</symbol>


<symbol id="subscribe-github" viewBox="0 0 32 32">
<path fill="#f8d24e" style="fill: var(--color1, #f8d24e)" d="M32 16c0 8.837-7.163 16-16 16s-16-7.163-16-16c0-8.837 7.163-16 16-16s16 7.163 16 16z"></path>
<path d="M16 6.588c-5.169 0-9.412 4.242-9.412 9.412 0 4.411 3.095 8.419 7.206 9.412v-3.114c-0.407 0.089-0.782 0.092-1.197-0.030-0.556-0.164-1.008-0.535-1.344-1.1-0.214-0.361-0.593-0.752-0.988-0.723l-0.097-1.099c0.855-0.073 1.595 0.521 2.034 1.259 0.195 0.328 0.419 0.52 0.708 0.605 0.278 0.082 0.578 0.043 0.926-0.080 0.088-0.698 0.407-0.959 0.648-1.326v-0.001c-2.451-0.366-3.428-1.666-3.816-2.693-0.514-1.363-0.238-3.066 0.671-4.142 0.018-0.021 0.050-0.076 0.037-0.114-0.417-1.258 0.091-2.299 0.11-2.41 0.481 0.142 0.559-0.143 2.089 0.786l0.264 0.159c0.111 0.066 0.076 0.028 0.186 0.020 0.639-0.173 1.312-0.269 1.975-0.278 0.668 0.009 1.337 0.104 2.002 0.285l0.086 0.009c-0.007-0.001 0.023-0.005 0.075-0.036 1.911-1.157 1.842-0.779 2.355-0.946 0.019 0.111 0.519 1.169 0.107 2.411-0.056 0.171 1.657 1.739 0.708 4.256-0.388 1.027-1.365 2.328-3.816 2.693v0.001c0.314 0.479 0.692 0.734 0.69 1.722v3.887c4.111-0.993 7.206-5 7.206-9.412 0-5.169-4.242-9.412-9.412-9.412v0z"></path>
</symbol>

<symbol id="subscribe-telegram" viewBox="0 0 32 32">
<path fill="#f8d24e" style="fill: var(--color1, #f8d24e)" d="M32 16c0 8.837-7.163 16-16 16s-16-7.163-16-16c0-8.837 7.163-16 16-16s16 7.163 16 16z"></path>
<path d="M12.869 18.375l-0.318 4.169c0.454 0 0.651-0.182 0.887-0.401l2.13-1.9 4.415 3.017c0.81 0.421 1.38 0.199 1.598-0.695l2.898-12.672 0.001-0.001c0.257-1.117-0.433-1.554-1.222-1.28l-17.032 6.086c-1.162 0.421-1.145 1.026-0.198 1.3l4.354 1.264 10.115-5.907c0.476-0.294 0.909-0.131 0.553 0.163l-8.182 6.857z"></path>
</symbol>
</defs>
</svg>
