<svg aria-hidden="true" style="position: absolute; width: 0; height: 0; overflow: hidden;" version="1.1" xmlns="http://www.w3.org/2000/svg" xmlns:xlink="http://www.w3.org/1999/xlink">
<defs>

<symbol id="menu-burger" viewBox="0 0 32 32">
<path stroke-linejoin="miter" stroke-linecap="round" stroke-miterlimit="4" stroke-width="2" d="M6 10h20"></path>
<path stroke-linejoin="miter" stroke-linecap="round" stroke-miterlimit="4" stroke-width="2" d="M6 16h20"></path>
<path stroke-linejoin="miter" stroke-linecap="round" stroke-miterlimit="4" stroke-width="2" d="M6 22h20"></path>
</symbol>

<symbol id="to-top" viewBox="0 0 32 32">
<path d="M26.851 23.75c-0.431 0-0.861-0.179-1.167-0.529l-9.683-11.067-9.683 11.067c-0.564 0.644-1.543 0.71-2.187 0.146s-0.709-1.543-0.146-2.187l10.85-12.4c0.294-0.336 0.72-0.529 1.166-0.529s0.872 0.193 1.166 0.529l10.85 12.4c0.564 0.644 0.499 1.623-0.146 2.187-0.294 0.257-0.658 0.384-1.020 0.384z"></path>
</symbol>

<symbol id="cursor" viewBox="0 0 32 32">
<path stroke-linejoin="miter" stroke-linecap="butt" stroke-miterlimit="4" stroke-width="1.3333" d="M12.031 9.341l7.289 6.803c1.247 1.164 0.558 3.255-1.138 3.449l-2.745 0.314c-0.689 0.079-1.336 0.37-1.851 0.834l-1.582 1.424c-1.287 1.158-3.338 0.245-3.338-1.487v-9.876c0-1.749 2.086-2.655 3.365-1.462z"></path>
</symbol>
<symbol id="advantages-cow" viewBox="0 0 32 32">
<path d="M6.434 0.778c-0.254 0.219-0.979 1.733-1.24 2.559-0.31 1.024-0.416 1.791-0.373 2.852 0.056 1.514 0.437 2.661 1.275 3.861 0.218 0.314 0.394 0.585 0.394 0.607 0 0.015-0.134 0.029-0.303 0.029-0.726 0-2.085 0.241-3.128 0.556-1.655 0.497-2.627 1.367-2.627 2.34 0 0.344 0.31 0.929 0.641 1.228 0.641 0.578 2.043 1.126 3.55 1.389 0.521 0.095 2.071 0.256 2.416 0.263 0.063 0 0.085 0.336 0.085 1.44 0 0.951 0.035 1.689 0.106 2.142 0.254 1.623 1.043 3.341 2.085 4.555l0.359 0.417-0.24 0.387c-0.352 0.548-0.486 0.965-0.528 1.587-0.106 1.492 0.824 2.815 2.62 3.744 3.423 1.777 8.742 1.082 10.735-1.404 0.972-1.214 1.085-2.603 0.317-3.861l-0.239-0.388 0.43-0.519c0.803-0.965 1.324-1.93 1.719-3.151 0.331-1.038 0.458-2.040 0.458-3.627 0-0.724 0.021-1.323 0.056-1.323 0.324-0.007 1.881-0.175 2.374-0.263 1.515-0.263 2.888-0.804 3.55-1.389 0.331-0.3 0.641-0.885 0.641-1.228 0-1.082-1.099-1.96-3.142-2.486-0.669-0.175-1.93-0.387-2.543-0.424l-0.289-0.022 0.317-0.439c0.394-0.534 0.888-1.572 1.078-2.252 0.535-1.967 0.204-4.255-0.944-6.442-0.479-0.907-0.81-1.119-1.198-0.76-0.148 0.139-0.211 0.329-0.352 1.016-0.437 2.186-1.247 3.919-2.43 5.199l-0.521 0.57h-11.144l-0.465-0.505c-1.155-1.272-1.993-3.071-2.43-5.264-0.141-0.687-0.204-0.877-0.352-1.016-0.232-0.212-0.458-0.205-0.718 0.022zM7.336 5.114c0.373 0.819 0.838 1.587 1.388 2.296l0.437 0.563-0.458 0.344c-0.43 0.329-0.831 0.797-1.141 1.331l-0.134 0.241-0.338-0.461c-1.155-1.594-1.444-3.546-0.831-5.571 0.296-0.98 0.289-0.972 0.556-0.124 0.127 0.409 0.366 1.031 0.521 1.382zM25.672 3.571c0.289 0.87 0.402 1.565 0.402 2.464 0 1.331-0.352 2.457-1.092 3.466l-0.331 0.453-0.247-0.417c-0.289-0.512-0.782-1.046-1.233-1.353-0.19-0.124-0.338-0.249-0.338-0.263 0-0.022 0.134-0.19 0.303-0.373 0.782-0.87 1.62-2.435 2.036-3.78 0.127-0.417 0.254-0.76 0.275-0.76s0.127 0.256 0.225 0.563zM22.072 8.916c0.782 0.329 1.529 1.272 1.648 2.069 0.063 0.439 0.211 0.717 0.402 0.76 0.084 0.015 0.669 0.066 1.296 0.11 2.226 0.146 3.98 0.621 4.727 1.272 0.345 0.307 0.31 0.563-0.106 0.877-0.831 0.629-2.627 1.104-4.459 1.184-1.212 0.051-1.465 0.088-1.627 0.256-0.12 0.124-0.134 0.256-0.134 1.579 0 1.791-0.092 2.822-0.317 3.656-0.317 1.133-0.944 2.34-1.677 3.195l-0.303 0.351-0.627-0.373c-0.761-0.453-1.472-0.746-2.325-0.943-2.67-0.636-5.621-0.249-7.608 1.002l-0.458 0.293-0.289-0.344c-0.394-0.461-1.014-1.448-1.261-2.003-0.542-1.258-0.704-2.281-0.704-4.533 0-2.186 0.113-2.025-1.507-2.113-2.071-0.11-3.649-0.483-4.642-1.111-0.733-0.468-0.613-0.885 0.409-1.375 0.979-0.475 2.325-0.76 4.191-0.877 1.451-0.095 1.486-0.117 1.62-0.819 0.197-1.060 0.979-1.938 1.965-2.215 0.246-0.073 1.627-0.088 5.854-0.080l5.53 0.015 0.401 0.168zM18.113 24.051c1.726 0.424 3.015 1.214 3.571 2.193 0.134 0.227 0.19 0.461 0.218 0.819 0.028 0.446 0.007 0.556-0.162 0.921-0.782 1.66-3.656 2.756-6.579 2.508-3.515-0.293-5.826-2.252-4.917-4.175 0.493-1.038 2.163-2.033 3.924-2.325 0.289-0.044 0.578-0.095 0.634-0.11s0.69-0.015 1.409 0c0.979 0.022 1.451 0.066 1.902 0.168z"></path>
<path d="M11.126 12.579c-0.437 0.146-0.733 0.336-1.127 0.731-0.345 0.329-0.373 0.717-0.085 0.95 0.268 0.219 0.521 0.19 0.845-0.095 0.409-0.358 0.726-0.504 1.12-0.504 0.394-0.007 0.697 0.132 1.12 0.504 0.324 0.285 0.578 0.314 0.845 0.095 0.141-0.117 0.183-0.212 0.183-0.431 0-0.227-0.049-0.329-0.296-0.578-0.697-0.702-1.733-0.972-2.606-0.673z"></path>
<path d="M19.339 12.571c-0.451 0.168-1.029 0.548-1.261 0.833-0.225 0.278-0.232 0.592 0 0.826 0.232 0.249 0.514 0.234 0.852-0.044 0.831-0.687 1.451-0.709 2.219-0.073 0.197 0.168 0.423 0.3 0.493 0.3 0.345 0 0.627-0.307 0.627-0.673 0-0.234-0.585-0.775-1.113-1.031-0.585-0.285-1.282-0.336-1.817-0.139z"></path>
<path d="M12.147 26.106c-0.204 0.197-0.275 0.483-0.169 0.709 0.078 0.183 0.197 0.256 0.683 0.388 0.218 0.058 0.31 0.132 0.387 0.314 0.099 0.241 0.106 0.241 0.648 0.263l0.542 0.022v-0.205c-0.007-0.293-0.169-0.717-0.38-1.009-0.247-0.336-0.676-0.556-1.162-0.6-0.331-0.029-0.416-0.015-0.549 0.117z"></path>
<path d="M18.874 26.054c-0.352 0.095-0.859 0.57-1 0.943-0.063 0.168-0.127 0.468-0.134 0.665-0.014 0.314 0.014 0.388 0.183 0.541 0.416 0.366 0.965 0.080 0.965-0.504 0-0.285 0.211-0.483 0.585-0.556 0.394-0.073 0.535-0.234 0.542-0.607 0-0.49-0.437-0.68-1.141-0.483z"></path>
</symbol>
<symbol id="advantages-ice-crema" viewBox="0 0 32 32">
<path d="M16.108 0.107c0.080 0.214 0.241 1.252 0.241 1.573 0 0.797-0.295 1.54-0.837 2.122-0.449 0.482-0.897 0.75-1.975 1.185-1.198 0.489-1.694 0.783-2.256 1.339-0.569 0.569-0.904 1.192-1.024 1.921-0.134 0.797 0 1.359 0.408 1.68l0.208 0.161-0.328 0.208c-0.663 0.435-1.868 1.459-2.075 1.774-0.402 0.603-0.361 1.165 0.094 1.392l0.214 0.107-0.241 0.228c-0.361 0.341-0.435 0.576-0.382 1.192 0.033 0.408 0.020 0.629-0.074 0.964-0.114 0.435-0.114 0.442 0.033 0.75 0.147 0.301 0.562 0.683 0.937 0.843 0.181 0.080 0.187 0.107 0.228 0.723 0.020 0.355 0.053 1.486 0.080 2.517 0.020 1.031 0.067 1.975 0.107 2.089 0.033 0.121 0.161 0.281 0.274 0.361 0.388 0.268 0.656 0.556 0.83 0.89 0.194 0.382 0.408 1.319 1.058 4.559l0.455 2.276 0.281 0.268c0.536 0.529 1.56 0.77 3.247 0.77 1.694 0 2.705-0.234 3.24-0.763l0.288-0.274 0.415-2.109c0.917-4.613 0.997-4.867 1.714-5.436 0.221-0.181 0.435-0.402 0.475-0.502 0.047-0.114 0.094-0.991 0.127-2.316 0.027-1.178 0.067-2.343 0.094-2.591l0.040-0.449 0.435-0.328c0.549-0.422 0.763-0.803 0.763-1.393-0.007-0.696-0.462-1.459-1.292-2.142l-0.395-0.321 0.194-0.274c0.81-1.118 0.301-2.664-1.205-3.695l-0.455-0.315 0.167-0.174c0.743-0.797 0.864-3.173 0.241-4.827-0.375-0.984-1.232-2.055-2.283-2.845-0.515-0.388-1.935-1.245-2.062-1.245-0.027 0-0.027 0.047-0.007 0.107zM18.036 2.443c0.355 0.348 0.783 0.823 0.951 1.064 0.997 1.392 1.252 3.14 0.649 4.425-0.241 0.522-0.964 1.299-1.633 1.761-1.024 0.71-3.327 1.901-4.934 2.557-2.584 1.051-4.084 1.252-4.258 0.562-0.067-0.261 0.127-0.469 0.951-1.018 0.743-0.509 4.077-2.986 4.137-3.086 0.020-0.027-0.321 0.127-0.75 0.341-1.453 0.736-2.142 0.596-2.109-0.428 0.020-0.743 0.556-1.587 1.299-2.069 0.187-0.12 0.77-0.388 1.305-0.603 1.761-0.71 2.296-1.071 2.892-1.962 0.355-0.529 0.743-1.506 0.77-1.921 0.007-0.147 0.034-0.261 0.054-0.261s0.321 0.288 0.676 0.636zM19.864 10.049c0.489 0.274 0.997 0.743 1.218 1.111 0.388 0.663 0.187 1.325-0.649 2.169-0.91 0.924-2.464 1.808-4.171 2.37-1.573 0.515-3.079 0.756-5.235 0.83l-1.339 0.047 0.87 0.054c1.125 0.074 3.3 0.007 4.144-0.127 2.243-0.355 4.151-1.064 5.516-2.042 0.308-0.221 0.629-0.402 0.716-0.402 0.221 0 1.185 0.924 1.379 1.312 0.107 0.221 0.134 0.382 0.114 0.596-0.1 0.89-1.185 1.366-3.802 1.68-3.2 0.382-7.384 0.007-9.172-0.817-0.844-0.388-0.984-0.609-0.77-1.198 0.067-0.187 0.080-0.408 0.054-0.723-0.033-0.415-0.027-0.469 0.12-0.623 0.335-0.361 0.897-0.569 2.959-1.091 0.723-0.187 1.707-0.482 2.176-0.656 1.138-0.415 3.274-1.493 4.264-2.156 0.93-0.616 1.064-0.643 1.607-0.335zM10.974 18.243c1.406 0.408 2.651 0.529 4.967 0.482 1.741-0.034 2.812-0.141 4.358-0.415 0.315-0.053 0.589-0.1 0.623-0.1 0.074 0 0.053 2.571-0.027 3.247-0.087 0.716-0.281 1.272-0.489 1.406-0.214 0.141-1.285 0.288-2.718 0.368-2.939 0.161-5.958 0-6.895-0.375-0.509-0.207-0.562-0.475-0.569-2.959 0-1.654 0.013-1.881 0.1-1.848 0.053 0.020 0.348 0.107 0.649 0.194zM12.56 23.933c0.482 0.060 1.004 0.121 1.165 0.141l0.288 0.034-0.254 0.281c-0.328 0.355-0.83 1.064-1.011 1.426-0.207 0.415-0.274 0.442-0.582 0.274l-0.261-0.147-0.147-0.91c-0.080-0.495-0.167-0.971-0.187-1.051-0.060-0.174-0.12-0.174 0.991-0.047zM19.697 23.859c0 0.013-0.033 0.187-0.067 0.382-0.040 0.201-0.208 1.292-0.375 2.43-0.341 2.377-0.569 3.495-0.777 3.869-0.288 0.502-0.977 0.797-2.095 0.89-0.435 0.034-1.747-0.053-1.821-0.12-0.053-0.060 1.098-1.486 1.279-1.58 0.167-0.094 0.214-0.080 0.783 0.214 0.663 0.348 0.997 0.402 0.997 0.181s-0.174-0.435-0.602-0.73c-0.395-0.281-0.536-0.442-0.536-0.629 0-0.053 0.194-0.355 0.428-0.669s0.576-0.817 0.75-1.118l0.328-0.542 0.301 0.040c0.609 0.087 0.77 0.080 0.75-0.053-0.013-0.067-0.127-0.261-0.254-0.422-0.127-0.167-0.228-0.335-0.228-0.368 0-0.127 0.623-1.299 0.823-1.546 0.174-0.214 0.315-0.321 0.315-0.228zM15.513 24.395c0.335 0.221 1.593 1.312 1.674 1.446 0.034 0.060-1.259 2.082-1.513 2.37-0.027 0.034-0.167-0.033-0.308-0.141-0.141-0.114-0.663-0.475-1.165-0.803l-0.904-0.596 0.542-0.917c0.964-1.613 0.944-1.587 1.151-1.587 0.107 0 0.341 0.1 0.522 0.228zM18.050 24.636c-0.234 0.288-0.428 0.469-0.509 0.469-0.174 0-0.455-0.154-0.93-0.502l-0.395-0.288 0.79-0.047c0.428-0.020 0.844-0.047 0.917-0.060 0.536-0.087 0.536-0.080 0.127 0.428zM12.989 27.856c0.616 0.241 1.66 0.81 1.962 1.064 0.214 0.174 0.214 0.187 0.127 0.402-0.054 0.121-0.234 0.442-0.415 0.716-0.174 0.268-0.375 0.602-0.449 0.743-0.214 0.415-0.281 0.449-0.723 0.328-0.475-0.141-0.73-0.382-0.864-0.817-0.181-0.609-0.469-2.33-0.435-2.598 0.013-0.1 0.295-0.040 0.797 0.161z"></path>
</symbol>
<symbol id="advantages-weight" viewBox="0 0 32 32">
<path d="M14.177 0.547c-3.974 0.589-7.247 2.796-8.451 5.685-0.384 0.913-0.488 1.473-0.488 2.573 0.007 0.812 0.037 1.114 0.162 1.552 0.259 0.863 0.443 1.301 0.827 1.919l0.355 0.575-0.399 0.489c-3.154 3.924-3.502 9.444-0.872 13.793 0.982 1.632 2.585 3.234 4.152 4.169l0.465 0.273 12.743-0.108 0.303-0.165c1.056-0.597 2.549-1.926 3.383-3.004 1.256-1.639 2.076-3.551 2.423-5.621 0.118-0.74 0.118-2.932-0.007-3.63-0.377-2.149-1.182-3.989-2.453-5.621-0.244-0.309-0.436-0.568-0.436-0.589 0-0.014 0.133-0.237 0.288-0.489 0.362-0.575 0.687-1.315 0.864-1.962 0.199-0.719 0.199-2.516 0-3.234-0.709-2.552-2.837-4.679-5.843-5.851-0.842-0.331-2.283-0.683-3.213-0.798-0.864-0.101-2.999-0.079-3.804 0.043zM18.676 1.718c3.945 0.769 6.833 3.184 7.365 6.16 0.118 0.668 0.044 1.804-0.155 2.437-0.199 0.618-0.569 1.344-1.005 1.962-0.177 0.252-0.325 0.539-0.325 0.633s0.155 0.338 0.377 0.582c1.847 2.048 2.822 4.614 2.822 7.389-0.007 3.155-1.219 5.922-3.553 8.093-0.399 0.374-0.968 0.841-1.271 1.042l-0.554 0.374-12.211 0.050-0.473-0.302c-1.714-1.114-3.258-2.954-4.115-4.909-1.079-2.472-1.189-5.34-0.31-7.913 0.465-1.337 1.086-2.429 2.031-3.579 0.384-0.46 0.561-0.733 0.561-0.863 0-0.108-0.192-0.46-0.443-0.827-0.886-1.287-1.248-2.717-1.034-4.068 0.222-1.366 0.842-2.487 1.987-3.601 1.492-1.445 3.575-2.401 6.020-2.76 1.012-0.151 3.25-0.093 4.285 0.101z"></path>
<path d="M14.51 2.983c-3.029 0.496-5.4 2.178-6.176 4.384-0.177 0.496-0.207 0.69-0.207 1.402s0.030 0.906 0.207 1.402c0.111 0.316 0.318 0.755 0.458 0.978 0.384 0.618 0.554 0.64 1.315 0.18 1.138-0.697 2.445-1.207 3.804-1.488 0.916-0.187 2.674-0.259 3.671-0.144 1.559 0.18 3.25 0.74 4.602 1.538 0.384 0.223 0.776 0.41 0.872 0.41 0.561 0 1.278-1.617 1.278-2.875 0-2.796-2.674-5.189-6.464-5.786-0.805-0.129-2.585-0.129-3.361 0zM18.166 4.133c1.271 0.273 2.438 0.791 3.317 1.473 1.182 0.913 1.817 2.185 1.714 3.414-0.037 0.489-0.222 1.15-0.332 1.222-0.029 0.014-0.443-0.158-0.916-0.388-0.983-0.474-2.098-0.855-3.228-1.1-0.687-0.144-0.975-0.165-2.512-0.158-1.514 0-1.832 0.022-2.489 0.158-1.138 0.244-2.024 0.546-3.117 1.064-1.101 0.525-1.042 0.532-1.241-0.115-0.258-0.841-0.096-1.955 0.406-2.796 0.266-0.446 0.997-1.186 1.529-1.553 1.012-0.697 1.899-1.013 3.804-1.358 0.391-0.072 2.563 0.029 3.066 0.137z"></path>
<path d="M16.962 13.405c-0.207 0.259-0.207 0.503 0.007 0.712 0.14 0.137 0.281 0.172 0.79 0.208 0.99 0.072 1.935 0.359 2.785 0.848 0.606 0.359 1.529 1.229 1.943 1.854 0.613 0.898 1.034 2.185 1.034 3.134 0 0.331 0.029 0.431 0.185 0.575 0.236 0.237 0.547 0.237 0.776 0 0.163-0.165 0.17-0.208 0.125-0.913-0.207-3.479-3.184-6.383-6.744-6.577l-0.739-0.043-0.163 0.201z"></path>
</symbol>
<symbol id="arrow-angle-to-right" viewBox="0 0 32 32">
<path stroke-linejoin="round" stroke-linecap="round" stroke-miterlimit="4" stroke-width="5.3333" d="M10.667 5.333l13.2 10.667-13.2 10.667"></path>
</symbol>
<symbol id="arrow-default" viewBox="0 0 32 32">
<path d="M31.771 16.552c0.305-0.305 0.305-0.799 0-1.104l-4.967-4.967c-0.305-0.305-0.799-0.305-1.104 0s-0.305 0.799 0 1.104l4.415 4.415-4.415 4.415c-0.305 0.305-0.305 0.799 0 1.104s0.799 0.305 1.104 0l4.967-4.967zM0 16.78h31.22v-1.561h-31.22v1.561z"></path>
</symbol>
<symbol id="arrow-hover" viewBox="0 0 32 32">
<path d="M31.816 16.444c0.245-0.245 0.245-0.642 0-0.887l-3.993-3.993c-0.245-0.245-0.642-0.245-0.887 0s-0.245 0.642 0 0.887l3.549 3.549-3.549 3.549c-0.245 0.245-0.245 0.642 0 0.887s0.642 0.245 0.887 0l3.993-3.993zM0 16.627h31.373v-1.255h-31.373v1.255z"></path>
</symbol>
<symbol id="arrow-focus" viewBox="0 0 32 32">
<path d="M31.422 16.653c0.36-0.36 0.36-0.945 0-1.305l-5.874-5.874c-0.36-0.361-0.945-0.361-1.305 0s-0.36 0.945 0 1.305l5.222 5.222-5.222 5.222c-0.36 0.36-0.36 0.945 0 1.305s0.945 0.36 1.305 0l5.874-5.874zM0 16.923h30.769v-1.846h-30.769v1.846z"></path>
</symbol>
<symbol id="logo" viewBox="0 0 32 32">
<path d="M16.325 14.283c1.532-4.11-1.641-6.36-3.745-7.839-0.402-0.302-0.804-0.584-1.13-0.843-0.582-0.486-1.011-1.126-1.236-1.846s-0.235-1.488-0.031-2.213c0.021-0.076 0.020-0.156-0.001-0.232s-0.065-0.144-0.123-0.197c-0.058-0.053-0.131-0.090-0.209-0.105s-0.159-0.010-0.234 0.017c-0.708 0.277-1.367 0.665-1.951 1.149-0.561 0.427-1.015 0.976-1.328 1.604s-0.476 1.318-0.478 2.018c-0.397 0.309-0.747 0.672-1.042 1.077-0.541 0.73-0.812 1.621-0.768 2.524-0.644 0.585-1.124 1.325-1.393 2.148s-0.317 1.7-0.14 2.547c-0.256 0.153-0.455 0.385-0.565 0.66s-0.126 0.579-0.044 0.863c0.081 0.285 0.255 0.535 0.494 0.713s0.531 0.273 0.831 0.271h0.028v2.337c0 0.237 0.095 0.465 0.265 0.632s0.4 0.262 0.64 0.262h0.704l1.146 9.819c0.024 0.219 0.129 0.421 0.294 0.567s0.38 0.228 0.603 0.228h4.771c0.223-0.001 0.437-0.082 0.603-0.228s0.272-0.348 0.298-0.567l1.146-9.819h0.704c0.24 0 0.47-0.094 0.64-0.262s0.265-0.395 0.265-0.632v-2.337h0.028c0.364 0 0.713-0.143 0.97-0.397s0.402-0.599 0.402-0.959c0.002-0.179-0.033-0.357-0.102-0.523s-0.171-0.316-0.3-0.443l-0.012 0.004zM5.999 6.826c0.579 2.151 2.816 2.997 4.855 3.753 0.055 0.033 0.116 0.054 0.18 0.062s0.129 0 0.19-0.020c0.061-0.020 0.117-0.054 0.163-0.098s0.083-0.098 0.106-0.157c0.023-0.059 0.033-0.123 0.028-0.187s-0.023-0.125-0.055-0.181c-0.031-0.056-0.075-0.104-0.127-0.141s-0.112-0.062-0.176-0.074c-2.196-0.823-4.268-1.59-4.425-3.788-0.037-0.604 0.078-1.208 0.334-1.758s0.646-1.029 1.134-1.394c0.306-0.252 0.635-0.475 0.981-0.668-0.022 0.275-0.022 0.552 0 0.827 0.047 0.63 0.221 1.244 0.512 1.806s0.695 1.060 1.185 1.465c0.334 0.282 0.748 0.572 1.207 0.883 1.058 0.751 2.261 1.59 3.025 2.727 0.408 0.583 0.661 1.258 0.738 1.962s-0.026 1.417-0.3 2.072h-1.778c-3.664 0-7.876-1.002-8.708-3.808-0.165-0.577-0.164-1.189 0.004-1.766s0.495-1.096 0.945-1.498l-0.020-0.020zM9.298 20.377l1.344 1.328-1.344 1.328-1.343-1.336 1.343-1.32zM12.379 23.863l-1.11 1.097-1.343-1.328 1.343-1.324 1.166 1.149-0.056 0.405zM9.298 26.908l-1.343-1.328 1.343-1.328 1.344 1.328-1.344 1.328zM8.682 23.641l-1.343 1.328-1.118-1.105-0.048-0.398 1.167-1.149 1.343 1.324zM6.719 25.581l-0.269 0.266-0.068-0.604 0.338 0.338zM6.578 26.94l0.76-0.751 1.476 1.471c0.008 0.030 0.017 0.059 0.028 0.087h-2.172l-0.093-0.807zM11.26 26.189l0.76 0.751-0.093 0.795h-2.232l1.565-1.546zM12.145 25.847l-0.27-0.266 0.342-0.338-0.072 0.604zM12.548 22.373l-0.672-0.676 0.853-0.843-0.181 1.519zM11.256 21.093l-1.275-1.256h2.55l-1.275 1.256zM7.335 21.093l-1.275-1.256h2.55l-1.275 1.256zM11.679 29.584h-4.767c-0.007-0.001-0.014-0.004-0.019-0.009s-0.008-0.012-0.009-0.019l-0.113-0.954h5.052l-0.109 0.954c-0.001 0.008-0.005 0.015-0.011 0.020s-0.014 0.008-0.021 0.008h-0.004zM15.367 15.734h-1.4c-0.061-0.006-0.122 0.001-0.18 0.020s-0.111 0.050-0.157 0.090c-0.045 0.041-0.081 0.090-0.106 0.145s-0.038 0.115-0.038 0.175 0.013 0.12 0.038 0.175c0.025 0.055 0.061 0.105 0.106 0.145s0.099 0.071 0.157 0.090 0.119 0.026 0.18 0.020h0.499v2.337c-0.001 0.008-0.005 0.015-0.011 0.020s-0.014 0.008-0.021 0.008h-10.285c-0.008 0-0.016-0.003-0.021-0.008s-0.010-0.012-0.011-0.020v-2.337h7.968c0.109-0.010 0.209-0.060 0.283-0.14s0.114-0.184 0.114-0.291-0.041-0.212-0.114-0.291c-0.073-0.080-0.174-0.13-0.283-0.14h-8.849c-0.069 0.006-0.139-0.002-0.204-0.024s-0.126-0.057-0.177-0.103-0.092-0.102-0.12-0.165c-0.028-0.063-0.042-0.13-0.042-0.199s0.014-0.136 0.042-0.199c0.028-0.063 0.069-0.119 0.12-0.165s0.111-0.081 0.177-0.103 0.135-0.030 0.204-0.024h0.913c0.109-0.010 0.209-0.060 0.283-0.14s0.114-0.184 0.114-0.291c0-0.108-0.041-0.212-0.114-0.291s-0.174-0.13-0.283-0.14h-0.804c-0.115-0.605-0.096-1.227 0.055-1.824s0.432-1.155 0.822-1.634c0.282 0.867 1.006 2.051 2.816 2.993 1.701 0.879 3.954 1.328 6.693 1.328h1.609c0.069-0.006 0.139 0.002 0.204 0.024s0.126 0.057 0.177 0.103c0.051 0.046 0.092 0.102 0.12 0.165s0.042 0.13 0.042 0.199c0 0.068-0.014 0.136-0.042 0.199s-0.069 0.119-0.12 0.165-0.111 0.081-0.177 0.103c-0.066 0.022-0.135 0.030-0.204 0.024h0.028z"></path>
<path d="M18.578 27.17l-0.322 0.494 0.006 0.004 0.315-0.498zM22.045 27.337l0.589-0.013-0.015-0.682-0.673 0.114 0.099 0.581zM22.085 29.151l0.15 0.57 0.45-0.118-0.010-0.465-0.589 0.013zM17.536 29.237l0.132-0.575-0.004-0.001-0.129 0.575zM15.291 28.236l0.381-0.45-0.001-0.001-0.381 0.45zM14.479 26.393l0.59 0.003v-0.003h-0.59zM14.761 25.103l-0.529-0.26-0 0.001 0.529 0.259zM16.569 23.56l0.209 0.551 0.002-0.001-0.211-0.55zM22.361 23.411l0.588 0.046 0.039-0.498-0.485-0.12-0.142 0.572zM22.217 25.259l-0.11 0.579 0.646 0.123 0.051-0.656-0.588-0.046zM20.645 24.502c-0.885 0-1.629 0.095-2.172 0.333-0.278 0.122-0.532 0.295-0.716 0.538-0.19 0.251-0.281 0.543-0.281 0.852h1.179c0-0.069 0.017-0.107 0.041-0.14 0.031-0.040 0.1-0.104 0.251-0.171 0.316-0.139 0.862-0.234 1.697-0.234v-1.179zM17.476 26.226c0 0.607 0.272 1.107 0.78 1.438l0.644-0.988c-0.175-0.114-0.245-0.243-0.245-0.45h-1.179zM18.263 27.669c0.482 0.305 1.117 0.42 1.83 0.42v-1.179c-0.615 0-0.99-0.104-1.199-0.237l-0.631 0.996zM20.093 28.088c0.7 0 1.383-0.056 2.050-0.17l-0.197-1.163c-0.599 0.102-1.217 0.153-1.853 0.153v1.179zM21.455 27.351l0.040 1.814 1.179-0.026-0.040-1.814-1.179 0.026zM21.935 28.581c-0.674 0.177-1.418 0.268-2.234 0.268v1.179c0.904 0 1.749-0.101 2.534-0.307l-0.3-1.14zM19.701 28.849c-0.833 0-1.507-0.065-2.033-0.186l-0.265 1.149c0.641 0.148 1.41 0.217 2.297 0.217v-1.179zM17.665 28.662c-0.563-0.126-0.969-0.26-1.24-0.392l-0.517 1.060c0.389 0.19 0.896 0.348 1.5 0.483l0.257-1.151zM16.425 28.27c-0.291-0.142-0.54-0.304-0.752-0.484l-0.763 0.899c0.294 0.25 0.628 0.464 0.998 0.644l0.517-1.060zM15.671 27.785c-0.401-0.339-0.606-0.781-0.603-1.389l-1.179-0.006c-0.005 0.927 0.331 1.713 1.021 2.296l0.761-0.901zM15.069 26.393c0-0.396 0.078-0.736 0.222-1.030l-1.059-0.519c-0.232 0.473-0.342 0.994-0.342 1.549h1.179zM15.29 25.364c0.268-0.545 0.742-0.969 1.488-1.252l-0.418-1.102c-0.973 0.369-1.705 0.975-2.128 1.834l1.058 0.52zM16.78 24.111c0.784-0.301 1.66-0.456 2.633-0.456v-1.179c-1.1 0-2.12 0.175-3.056 0.534l0.423 1.101zM19.413 23.655c0.992 0 1.927 0.11 2.806 0.328l0.284-1.144c-0.979-0.243-2.010-0.363-3.090-0.363v1.179zM21.773 23.365l-0.144 1.848 1.176 0.092 0.144-1.848-1.176-0.092zM22.327 24.68c-0.613-0.116-1.175-0.177-1.682-0.177v1.179c0.415 0 0.901 0.050 1.462 0.157l0.22-1.159zM28.080 25.622l-0.003 0.59 0.599 0.003-0.006-0.599-0.59 0.006zM27.826 24.856l-0.401 0.432 0.005 0.005 0.396-0.437zM26.358 24.913l0.408 0.425 0.004-0.004-0.413-0.421zM26.001 25.61l-0.582-0.096-0.112 0.681 0.69 0.004 0.003-0.59zM30.337 28.754l0.356 0.47 0.212-0.161 0.020-0.265-0.588-0.044zM29.064 29.226l-0.127-0.576-0.003 0.001 0.13 0.575zM24.642 29.065l-0.201 0.554 0.005 0.002 0.196-0.556zM23.635 28.529l-0.366 0.462 0.007 0.005 0.359-0.468zM22.961 27.683l-0.529 0.261 0.001 0.002 0.527-0.264zM23.652 24.107l0.392 0.44 0-0-0.392-0.44zM29.041 23.468l0.236-0.54-0.006-0.002-0.23 0.543zM30.394 24.712l-0.53 0.258 0.002 0.003 0.529-0.261zM30.625 25.743l0.588 0.043 0.002-0.021v-0.021h-0.59zM30.556 26.693l-0.003 0.59 0.551 0.003 0.040-0.55-0.588-0.043zM25.886 26.67l0.003-0.59-0.769-0.004 0.196 0.744 0.57-0.15zM26.554 27.493l-0.29 0.513 0.002 0.001 0.288-0.515zM30.135 27.291v-0.59h-0.118l-0.109 0.045 0.227 0.544zM30.446 27.291l0.588 0.044 0.047-0.634h-0.635v0.59zM28.669 25.615c-0.005-0.426-0.103-0.884-0.447-1.196l-0.792 0.873c-0.007-0.006 0.007 0.001 0.023 0.052 0.018 0.054 0.035 0.144 0.036 0.283l1.179-0.013zM28.228 24.424c-0.309-0.287-0.715-0.382-1.115-0.382v1.179c0.23 0 0.3 0.055 0.313 0.067l0.802-0.864zM27.112 24.042c-0.439 0-0.847 0.138-1.167 0.451l0.825 0.842c0.064-0.063 0.159-0.114 0.342-0.114v-1.179zM25.95 24.488c-0.29 0.279-0.465 0.629-0.53 1.026l1.164 0.191c0.027-0.163 0.090-0.277 0.184-0.367l-0.817-0.851zM25.998 26.2l2.079 0.012 0.007-1.179-2.079-0.012-0.007 1.179zM29.981 28.284c-0.129 0.098-0.444 0.234-1.043 0.366l0.254 1.152c0.622-0.137 1.155-0.315 1.502-0.578l-0.712-0.94zM28.934 28.651c-0.571 0.129-1.121 0.193-1.649 0.193v1.179c0.623 0 1.26-0.075 1.909-0.222l-0.26-1.15zM27.285 28.844c-0.556 0-1.013-0.026-1.378-0.075l-0.157 1.169c0.434 0.058 0.947 0.086 1.535 0.086v-1.179zM25.907 28.768c-0.358-0.048-0.714-0.134-1.068-0.26l-0.392 1.112c0.428 0.151 0.863 0.257 1.304 0.316l0.157-1.169zM24.843 28.51c-0.345-0.125-0.625-0.277-0.85-0.449l-0.718 0.936c0.336 0.258 0.727 0.463 1.165 0.622l0.402-1.108zM24.001 28.067c-0.202-0.16-0.374-0.372-0.512-0.648l-1.055 0.527c0.208 0.415 0.485 0.768 0.835 1.045l0.732-0.924zM23.49 27.422c-0.124-0.251-0.198-0.574-0.198-0.988h-1.179c0 0.553 0.099 1.063 0.32 1.511l1.057-0.523zM23.292 26.433c0-0.415 0.075-0.781 0.216-1.107l-1.082-0.469c-0.212 0.488-0.314 1.016-0.314 1.576h1.179zM23.508 25.327c0.149-0.343 0.331-0.596 0.536-0.779l-0.784-0.881c-0.355 0.316-0.629 0.719-0.834 1.19l1.082 0.469zM24.044 24.547c0.634-0.565 1.6-0.893 2.993-0.893v-1.179c-1.563 0-2.853 0.367-3.778 1.192l0.785 0.88zM27.038 23.655c0.625 0 1.214 0.119 1.773 0.356l0.461-1.086c-0.708-0.3-1.454-0.45-2.234-0.45v1.179zM28.805 24.009c0.522 0.228 0.859 0.55 1.059 0.961l1.060-0.516c-0.338-0.695-0.903-1.201-1.647-1.526l-0.472 1.081zM29.866 24.973c0.11 0.223 0.169 0.476 0.169 0.77h1.179c0-0.459-0.094-0.893-0.291-1.292l-1.057 0.522zM30.037 25.7l-0.069 0.95 1.176 0.086 0.069-0.95-1.176-0.086zM30.558 26.103l-4.669-0.023-0.006 1.179 4.669 0.023 0.006-1.179zM25.316 26.82c0.138 0.523 0.475 0.919 0.948 1.186l0.58-1.027c-0.233-0.132-0.341-0.284-0.388-0.46l-1.14 0.301zM26.266 28.007c0.478 0.267 1.076 0.374 1.744 0.374v-1.179c-0.56 0-0.933-0.093-1.169-0.224l-0.575 1.029zM28.011 28.382c0.717 0 1.505-0.194 2.351-0.546l-0.453-1.089c-0.758 0.316-1.387 0.456-1.898 0.456v1.179zM30.135 27.881h0.311v-1.179h-0.311v1.179zM29.858 27.247l-0.109 1.462 1.176 0.088 0.109-1.462-1.176-0.088z"></path>
</symbol>
<symbol id="menu-burger" viewBox="0 0 32 32">
<path stroke-linejoin="miter" stroke-linecap="round" stroke-miterlimit="4" stroke-width="2" d="M6 10h20"></path>
<path stroke-linejoin="miter" stroke-linecap="round" stroke-miterlimit="4" stroke-width="2" d="M6 16h20"></path>
<path stroke-linejoin="miter" stroke-linecap="round" stroke-miterlimit="4" stroke-width="2" d="M6 22h20"></path>
</symbol>
<symbol id="menu-close" viewBox="0 0 32 32">
<path d="M28.108 1.727l-12.108 12.108-12.108-12.108c-0.291-0.266-0.674-0.41-1.069-0.402s-0.771 0.169-1.050 0.449c-0.279 0.279-0.44 0.655-0.449 1.050s0.135 0.777 0.402 1.069l12.102 12.108-12.105 12.105c-0.148 0.141-0.266 0.31-0.348 0.497s-0.125 0.389-0.127 0.593 0.036 0.407 0.113 0.596c0.077 0.189 0.191 0.361 0.335 0.506s0.316 0.259 0.505 0.336 0.392 0.116 0.596 0.114c0.204-0.002 0.406-0.045 0.593-0.127s0.357-0.199 0.498-0.347l12.111-12.105 12.108 12.108c0.291 0.266 0.674 0.41 1.069 0.402s0.771-0.169 1.050-0.449c0.279-0.279 0.44-0.655 0.448-1.050s-0.135-0.777-0.402-1.069l-12.108-12.108 12.108-12.111c0.148-0.141 0.266-0.31 0.348-0.497s0.125-0.389 0.128-0.593c0.003-0.204-0.036-0.407-0.113-0.596s-0.191-0.361-0.335-0.506c-0.144-0.145-0.316-0.259-0.505-0.336s-0.392-0.116-0.596-0.114-0.406 0.045-0.593 0.127c-0.187 0.081-0.357 0.199-0.498 0.347v0.003z"></path>
</symbol>
<symbol id="subscribe-facebook" viewBox="0 0 32 32">
<path fill="#f8d24e" style="fill: var(--color1, #f8d24e)" d="M16 32c8.837 0 16-7.163 16-16s-7.163-16-16-16c-8.837 0-16 7.163-16 16s7.163 16 16 16z"></path>
<path d="M20.446 15.982h-2.61v9.619h-3.955v-9.619h-1.881v-3.38h1.881v-2.187c0-1.564 0.739-4.014 3.99-4.014l2.929 0.012v3.281h-2.125c-0.349 0-0.839 0.175-0.839 0.921v1.989h2.955l-0.346 3.377z"></path>
</symbol>


<symbol id="subscribe-github" viewBox="0 0 32 32">
<path fill="#f8d24e" style="fill: var(--color1, #f8d24e)" d="M32 16c0 8.837-7.163 16-16 16s-16-7.163-16-16c0-8.837 7.163-16 16-16s16 7.163 16 16z"></path>
<path d="M16 6.588c-5.169 0-9.412 4.242-9.412 9.412 0 4.411 3.095 8.419 7.206 9.412v-3.114c-0.407 0.089-0.782 0.092-1.197-0.030-0.556-0.164-1.008-0.535-1.344-1.1-0.214-0.361-0.593-0.752-0.988-0.723l-0.097-1.099c0.855-0.073 1.595 0.521 2.034 1.259 0.195 0.328 0.419 0.52 0.708 0.605 0.278 0.082 0.578 0.043 0.926-0.080 0.088-0.698 0.407-0.959 0.648-1.326v-0.001c-2.451-0.366-3.428-1.666-3.816-2.693-0.514-1.363-0.238-3.066 0.671-4.142 0.018-0.021 0.050-0.076 0.037-0.114-0.417-1.258 0.091-2.299 0.11-2.41 0.481 0.142 0.559-0.143 2.089 0.786l0.264 0.159c0.111 0.066 0.076 0.028 0.186 0.020 0.639-0.173 1.312-0.269 1.975-0.278 0.668 0.009 1.337 0.104 2.002 0.285l0.086 0.009c-0.007-0.001 0.023-0.005 0.075-0.036 1.911-1.157 1.842-0.779 2.355-0.946 0.019 0.111 0.519 1.169 0.107 2.411-0.056 0.171 1.657 1.739 0.708 4.256-0.388 1.027-1.365 2.328-3.816 2.693v0.001c0.314 0.479 0.692 0.734 0.69 1.722v3.887c4.111-0.993 7.206-5 7.206-9.412 0-5.169-4.242-9.412-9.412-9.412v0z"></path>
</symbol>

<symbol id="subscribe-telegram" viewBox="0 0 32 32">
<path fill="#f8d24e" style="fill: var(--color1, #f8d24e)" d="M32 16c0 8.837-7.163 16-16 16s-16-7.163-16-16c0-8.837 7.163-16 16-16s16 7.163 16 16z"></path>
<path d="M12.869 18.375l-0.318 4.169c0.454 0 0.651-0.182 0.887-0.401l2.13-1.9 4.415 3.017c0.81 0.421 1.38 0.199 1.598-0.695l2.898-12.672 0.001-0.001c0.257-1.117-0.433-1.554-1.222-1.28l-17.032 6.086c-1.162 0.421-1.145 1.026-0.198 1.3l4.354 1.264 10.115-5.907c0.476-0.294 0.909-0.131 0.553 0.163l-8.182 6.857z"></path>
</symbol>
</defs>
</svg>
