<svg aria-hidden="true" style="position: absolute; width: 0; height: 0; overflow: hidden;" version="1.1" xmlns="http://www.w3.org/2000/svg" xmlns:xlink="http://www.w3.org/1999/xlink">
<defs>

<symbol id="arrow-angle" viewBox="0 0 20 32">
<path stroke-linejoin="round" stroke-linecap="round" stroke-miterlimit="4" stroke-width="5.8182" d="M5.678 3.765l11.777 12.321-11.777 12.321"></path>
</symbol>

<symbol id="facebook" viewBox="0 0 32 32">
<path fill="#f8d24e" style="fill: var(--color1, #f8d24e)" d="M16 32c8.837 0 16-7.163 16-16s-7.163-16-16-16c-8.837 0-16 7.163-16 16s7.163 16 16 16z"></path>
<path fill="#84a178" style="fill: var(--color2, #84a178)" d="M20.446 15.982h-2.61v9.619h-3.955v-9.619h-1.881v-3.38h1.881v-2.187c0-1.564 0.739-4.014 3.99-4.014l2.929 0.012v3.281h-2.125c-0.349 0-0.839 0.175-0.839 0.921v1.989h2.955l-0.346 3.377z"></path>
</symbol>
<symbol id="github" viewBox="0 0 32 32">
<path fill="#f8d24e" style="fill: var(--color1, #f8d24e)" d="M32 16c0 8.837-7.163 16-16 16s-16-7.163-16-16c0-8.837 7.163-16 16-16s16 7.163 16 16z"></path>
<path fill="#84a178" style="fill: var(--color2, #84a178)" d="M16 6.588c-5.169 0-9.412 4.242-9.412 9.412 0 4.411 3.095 8.419 7.206 9.412v-3.114c-0.407 0.089-0.782 0.092-1.197-0.030-0.556-0.164-1.008-0.535-1.344-1.1-0.214-0.361-0.593-0.752-0.988-0.723l-0.097-1.099c0.855-0.073 1.595 0.521 2.034 1.259 0.195 0.328 0.419 0.52 0.708 0.605 0.278 0.082 0.578 0.043 0.926-0.080 0.088-0.698 0.407-0.959 0.648-1.326v-0.001c-2.451-0.366-3.428-1.666-3.816-2.693-0.514-1.363-0.238-3.066 0.671-4.142 0.018-0.021 0.050-0.076 0.037-0.114-0.417-1.258 0.091-2.299 0.11-2.41 0.481 0.142 0.559-0.143 2.089 0.786l0.264 0.159c0.111 0.066 0.076 0.028 0.186 0.020 0.639-0.173 1.312-0.269 1.975-0.278 0.668 0.009 1.337 0.104 2.002 0.285l0.086 0.009c-0.007-0.001 0.023-0.005 0.075-0.036 1.911-1.157 1.842-0.779 2.355-0.946 0.019 0.111 0.519 1.169 0.107 2.411-0.056 0.171 1.657 1.739 0.708 4.256-0.388 1.027-1.365 2.328-3.816 2.693v0.001c0.314 0.479 0.692 0.734 0.69 1.722v3.887c4.111-0.993 7.206-5 7.206-9.412 0-5.169-4.242-9.412-9.412-9.412v0z"></path>
</symbol>
<symbol id="telegram" viewBox="0 0 32 32">
<path fill="#f8d24e" style="fill: var(--color1, #f8d24e)" d="M32 16c0 8.837-7.163 16-16 16s-16-7.163-16-16c0-8.837 7.163-16 16-16s16 7.163 16 16z"></path>
<path fill="#84a178" style="fill: var(--color2, #84a178)" d="M12.867 18.375l-0.318 4.169c0.454 0 0.651-0.182 0.887-0.401l2.13-1.9 4.415 3.017c0.81 0.421 1.38 0.199 1.599-0.695l2.898-12.672 0.001-0.001c0.257-1.117-0.433-1.554-1.222-1.28l-17.032 6.086c-1.162 0.421-1.145 1.026-0.198 1.3l4.355 1.264 10.115-5.907c0.476-0.294 0.909-0.131 0.553 0.163l-8.182 6.857z"></path>
</symbol>
<symbol id="Arrow" viewBox="0 0 32 32">
<path d="M31.771 16.552c0.305-0.305 0.305-0.799 0-1.104l-4.967-4.967c-0.305-0.305-0.799-0.305-1.104 0s-0.305 0.799 0 1.104l4.415 4.415-4.415 4.415c-0.305 0.305-0.305 0.799 0 1.104s0.799 0.305 1.104 0l4.967-4.967zM0 16.78h31.22v-1.561h-31.22v1.561z"></path>
</symbol>
<symbol id="logo" viewBox="0 0 32 32">
<path fill="#f8d24e" style="fill: var(--color1, #f8d24e)" d="M16.324 14.283c1.533-4.11-1.641-6.36-3.745-7.839-0.402-0.302-0.804-0.584-1.13-0.843-0.582-0.486-1.011-1.126-1.236-1.846s-0.235-1.488-0.031-2.213c0.021-0.076 0.020-0.156-0.001-0.232s-0.065-0.144-0.123-0.197-0.131-0.090-0.209-0.105c-0.078-0.015-0.159-0.010-0.234 0.017-0.708 0.277-1.367 0.665-1.951 1.149-0.561 0.427-1.015 0.976-1.328 1.604s-0.476 1.318-0.478 2.018c-0.397 0.309-0.747 0.672-1.042 1.077-0.541 0.73-0.812 1.621-0.768 2.524-0.644 0.585-1.124 1.325-1.393 2.148s-0.317 1.7-0.14 2.547c-0.256 0.153-0.455 0.385-0.565 0.66s-0.126 0.579-0.044 0.863c0.081 0.285 0.255 0.535 0.494 0.713s0.531 0.273 0.831 0.271h0.028v2.337c0 0.237 0.095 0.465 0.265 0.632s0.4 0.262 0.64 0.262h0.704l1.146 9.819c0.024 0.219 0.129 0.421 0.294 0.567s0.38 0.228 0.603 0.228h4.771c0.223-0.001 0.437-0.082 0.603-0.228s0.272-0.348 0.298-0.567l1.146-9.819h0.704c0.24 0 0.47-0.094 0.64-0.262s0.265-0.395 0.265-0.632v-2.337h0.028c0.364 0 0.713-0.143 0.97-0.397s0.402-0.599 0.402-0.959c0.002-0.179-0.033-0.357-0.102-0.523s-0.171-0.316-0.3-0.443l-0.012 0.004zM5.999 6.826c0.579 2.151 2.816 2.997 4.855 3.753 0.055 0.033 0.116 0.054 0.18 0.062s0.129 0 0.19-0.020c0.061-0.020 0.117-0.054 0.163-0.098s0.083-0.098 0.106-0.157c0.023-0.059 0.033-0.123 0.028-0.187s-0.023-0.125-0.055-0.181c-0.031-0.056-0.075-0.104-0.127-0.141s-0.112-0.062-0.176-0.074c-2.196-0.823-4.268-1.59-4.425-3.788-0.037-0.604 0.078-1.208 0.334-1.758s0.646-1.029 1.134-1.394c0.306-0.252 0.634-0.475 0.981-0.668-0.022 0.275-0.022 0.552 0 0.827 0.047 0.63 0.221 1.244 0.512 1.806s0.695 1.060 1.185 1.465c0.334 0.282 0.748 0.572 1.207 0.883 1.058 0.751 2.261 1.59 3.025 2.727 0.408 0.583 0.661 1.258 0.738 1.962s-0.026 1.417-0.3 2.072h-1.778c-3.664 0-7.876-1.002-8.708-3.808-0.165-0.577-0.164-1.189 0.004-1.766s0.495-1.096 0.945-1.498l-0.020-0.020zM9.297 20.377l1.344 1.328-1.344 1.328-1.343-1.336 1.343-1.32zM12.378 23.863l-1.11 1.097-1.343-1.328 1.343-1.324 1.166 1.149-0.056 0.405zM9.297 26.908l-1.343-1.328 1.343-1.328 1.344 1.328-1.344 1.328zM8.682 23.641l-1.343 1.328-1.118-1.105-0.048-0.398 1.167-1.149 1.343 1.324zM6.719 25.581l-0.269 0.266-0.068-0.604 0.338 0.338zM6.578 26.94l0.76-0.751 1.476 1.471c0.008 0.030 0.017 0.059 0.028 0.087h-2.172l-0.093-0.807zM11.26 26.189l0.76 0.751-0.093 0.795h-2.232l1.565-1.546zM12.145 25.847l-0.269-0.266 0.342-0.338-0.072 0.604zM12.547 22.373l-0.672-0.676 0.853-0.843-0.181 1.519zM11.256 21.093l-1.275-1.256h2.55l-1.275 1.256zM7.334 21.093l-1.275-1.256h2.55l-1.275 1.256zM11.678 29.584h-4.767c-0.007-0.001-0.014-0.004-0.019-0.009s-0.008-0.012-0.009-0.019l-0.113-0.954h5.052l-0.109 0.954c-0.001 0.008-0.005 0.015-0.011 0.020s-0.014 0.008-0.021 0.008h-0.004zM15.367 15.734h-1.4c-0.061-0.006-0.122 0.001-0.18 0.020s-0.111 0.050-0.157 0.090c-0.045 0.041-0.081 0.090-0.106 0.145s-0.038 0.115-0.038 0.175 0.013 0.12 0.038 0.175c0.025 0.055 0.061 0.105 0.106 0.145s0.099 0.071 0.157 0.090 0.119 0.026 0.18 0.020h0.499v2.337c-0.001 0.008-0.005 0.015-0.011 0.020s-0.014 0.008-0.021 0.008h-10.285c-0.008 0-0.016-0.003-0.021-0.008s-0.010-0.012-0.011-0.020v-2.337h7.968c0.109-0.010 0.209-0.060 0.283-0.14s0.114-0.184 0.114-0.291-0.041-0.212-0.114-0.291c-0.073-0.080-0.174-0.13-0.283-0.14h-8.849c-0.069 0.006-0.139-0.002-0.204-0.024s-0.126-0.057-0.177-0.103-0.092-0.102-0.12-0.165c-0.028-0.063-0.042-0.13-0.042-0.199s0.014-0.136 0.042-0.199c0.028-0.063 0.069-0.119 0.12-0.165s0.111-0.081 0.177-0.103 0.135-0.030 0.204-0.024h0.913c0.109-0.010 0.209-0.060 0.283-0.14s0.114-0.184 0.114-0.291c0-0.108-0.041-0.212-0.114-0.291s-0.174-0.13-0.283-0.14h-0.804c-0.115-0.605-0.096-1.227 0.055-1.824s0.432-1.155 0.822-1.634c0.282 0.867 1.006 2.051 2.816 2.993 1.701 0.879 3.954 1.328 6.693 1.328h1.609c0.069-0.006 0.138 0.002 0.204 0.024s0.126 0.057 0.177 0.103c0.051 0.046 0.092 0.102 0.12 0.165s0.042 0.13 0.042 0.199c0 0.068-0.014 0.136-0.042 0.199s-0.069 0.119-0.12 0.165-0.111 0.081-0.177 0.103c-0.066 0.022-0.135 0.030-0.204 0.024h0.028z"></path>
<path fill="#f8d24e" style="fill: var(--color1, #f8d24e)" d="M18.578 27.17l-0.322 0.494 0.006 0.004 0.315-0.498zM22.045 27.337l0.589-0.013-0.015-0.682-0.673 0.114 0.099 0.581zM22.085 29.151l0.15 0.57 0.45-0.118-0.010-0.465-0.589 0.013zM17.536 29.237l0.132-0.575-0.004-0.001-0.129 0.575zM15.291 28.236l0.381-0.45-0.001-0.001-0.381 0.45zM14.479 26.393l0.59 0.003v-0.003h-0.59zM14.761 25.103l-0.529-0.26-0 0.001 0.529 0.259zM16.569 23.56l0.209 0.551 0.002-0.001-0.211-0.55zM22.361 23.411l0.588 0.046 0.039-0.498-0.485-0.12-0.142 0.572zM22.217 25.259l-0.11 0.579 0.646 0.123 0.051-0.656-0.588-0.046zM20.645 24.502c-0.885 0-1.629 0.095-2.172 0.333-0.278 0.122-0.532 0.295-0.716 0.538-0.19 0.251-0.281 0.543-0.281 0.852h1.179c0-0.069 0.017-0.107 0.041-0.14 0.031-0.040 0.1-0.104 0.251-0.171 0.316-0.139 0.862-0.234 1.697-0.234v-1.179zM17.476 26.226c0 0.607 0.272 1.107 0.78 1.438l0.644-0.988c-0.175-0.114-0.245-0.243-0.245-0.45h-1.179zM18.263 27.669c0.482 0.305 1.117 0.42 1.83 0.42v-1.179c-0.615 0-0.99-0.104-1.199-0.237l-0.631 0.996zM20.093 28.088c0.7 0 1.383-0.056 2.050-0.17l-0.197-1.163c-0.599 0.102-1.217 0.153-1.853 0.153v1.179zM21.455 27.351l0.040 1.814 1.179-0.026-0.040-1.814-1.179 0.026zM21.935 28.581c-0.674 0.177-1.418 0.268-2.234 0.268v1.179c0.904 0 1.749-0.101 2.534-0.307l-0.3-1.14zM19.701 28.849c-0.833 0-1.507-0.065-2.033-0.186l-0.265 1.149c0.641 0.148 1.41 0.217 2.297 0.217v-1.179zM17.665 28.662c-0.563-0.126-0.969-0.26-1.24-0.392l-0.517 1.060c0.389 0.19 0.896 0.348 1.5 0.483l0.257-1.151zM16.425 28.27c-0.291-0.142-0.54-0.304-0.752-0.484l-0.763 0.899c0.294 0.25 0.628 0.464 0.998 0.644l0.517-1.060zM15.671 27.785c-0.401-0.339-0.606-0.781-0.603-1.389l-1.179-0.006c-0.005 0.927 0.331 1.713 1.021 2.296l0.761-0.901zM15.069 26.393c0-0.396 0.078-0.736 0.222-1.030l-1.059-0.519c-0.232 0.473-0.342 0.994-0.342 1.549h1.179zM15.29 25.364c0.268-0.545 0.742-0.969 1.488-1.252l-0.418-1.102c-0.973 0.369-1.705 0.975-2.128 1.834l1.058 0.52zM16.78 24.111c0.784-0.301 1.66-0.456 2.633-0.456v-1.179c-1.1 0-2.12 0.175-3.056 0.534l0.423 1.101zM19.413 23.655c0.992 0 1.927 0.11 2.806 0.328l0.284-1.144c-0.979-0.243-2.010-0.363-3.090-0.363v1.179zM21.773 23.365l-0.144 1.848 1.176 0.092 0.144-1.848-1.176-0.092zM22.327 24.68c-0.613-0.116-1.175-0.177-1.682-0.177v1.179c0.415 0 0.901 0.050 1.462 0.157l0.22-1.159zM28.080 25.622l-0.003 0.59 0.599 0.003-0.006-0.599-0.59 0.006zM27.826 24.856l-0.401 0.432 0.005 0.005 0.396-0.437zM26.358 24.913l0.408 0.425 0.004-0.004-0.413-0.421zM26.001 25.61l-0.582-0.096-0.112 0.681 0.69 0.004 0.003-0.59zM30.337 28.754l0.356 0.47 0.212-0.161 0.020-0.265-0.588-0.044zM29.064 29.226l-0.127-0.576-0.003 0.001 0.13 0.575zM24.642 29.065l-0.201 0.554 0.005 0.002 0.196-0.556zM23.635 28.529l-0.366 0.462 0.007 0.005 0.359-0.468zM22.961 27.683l-0.529 0.261 0.001 0.002 0.527-0.264zM23.652 24.107l0.392 0.44 0-0-0.392-0.44zM29.041 23.468l0.236-0.54-0.006-0.002-0.23 0.543zM30.394 24.712l-0.53 0.258 0.002 0.003 0.529-0.261zM30.625 25.743l0.588 0.043 0.002-0.021v-0.021h-0.59zM30.556 26.693l-0.003 0.59 0.551 0.003 0.040-0.55-0.588-0.043zM25.886 26.67l0.003-0.59-0.769-0.004 0.196 0.744 0.57-0.15zM26.554 27.493l-0.29 0.513 0.002 0.001 0.288-0.515zM30.135 27.291v-0.59h-0.118l-0.109 0.045 0.227 0.544zM30.446 27.291l0.588 0.044 0.047-0.634h-0.635v0.59zM28.669 25.615c-0.005-0.426-0.103-0.884-0.447-1.196l-0.792 0.873c-0.007-0.006 0.007 0.001 0.023 0.052 0.018 0.054 0.035 0.144 0.036 0.283l1.179-0.013zM28.228 24.424c-0.309-0.287-0.715-0.382-1.115-0.382v1.179c0.23 0 0.3 0.055 0.313 0.067l0.802-0.864zM27.112 24.042c-0.439 0-0.847 0.138-1.167 0.451l0.825 0.842c0.064-0.063 0.159-0.114 0.342-0.114v-1.179zM25.95 24.488c-0.29 0.279-0.465 0.629-0.53 1.026l1.164 0.191c0.027-0.163 0.090-0.277 0.184-0.367l-0.817-0.851zM25.998 26.2l2.079 0.012 0.007-1.179-2.079-0.012-0.007 1.179zM29.981 28.284c-0.129 0.098-0.444 0.234-1.043 0.366l0.254 1.152c0.622-0.137 1.155-0.315 1.502-0.578l-0.712-0.94zM28.934 28.651c-0.571 0.129-1.121 0.193-1.649 0.193v1.179c0.623 0 1.26-0.075 1.909-0.222l-0.26-1.15zM27.285 28.844c-0.556 0-1.013-0.026-1.378-0.075l-0.157 1.169c0.434 0.058 0.947 0.086 1.535 0.086v-1.179zM25.907 28.768c-0.358-0.048-0.714-0.134-1.068-0.26l-0.392 1.112c0.428 0.151 0.863 0.257 1.304 0.316l0.157-1.169zM24.843 28.51c-0.345-0.125-0.625-0.277-0.85-0.449l-0.718 0.936c0.336 0.258 0.727 0.463 1.165 0.622l0.402-1.108zM24.001 28.067c-0.202-0.16-0.374-0.372-0.512-0.648l-1.055 0.527c0.208 0.415 0.485 0.768 0.835 1.045l0.732-0.924zM23.49 27.422c-0.124-0.251-0.198-0.574-0.198-0.988h-1.179c0 0.553 0.099 1.063 0.32 1.511l1.057-0.523zM23.292 26.433c0-0.415 0.075-0.781 0.216-1.107l-1.082-0.469c-0.212 0.488-0.314 1.016-0.314 1.576h1.179zM23.508 25.327c0.149-0.343 0.331-0.596 0.536-0.779l-0.784-0.881c-0.355 0.316-0.629 0.719-0.834 1.19l1.082 0.469zM24.044 24.547c0.634-0.565 1.6-0.893 2.993-0.893v-1.179c-1.563 0-2.853 0.367-3.778 1.192l0.785 0.88zM27.038 23.655c0.625 0 1.214 0.119 1.773 0.356l0.461-1.086c-0.708-0.3-1.454-0.45-2.234-0.45v1.179zM28.805 24.009c0.522 0.228 0.859 0.55 1.059 0.961l1.060-0.516c-0.338-0.695-0.903-1.201-1.647-1.526l-0.472 1.081zM29.866 24.973c0.11 0.223 0.169 0.476 0.169 0.77h1.179c0-0.459-0.094-0.893-0.291-1.292l-1.057 0.522zM30.037 25.7l-0.069 0.95 1.176 0.086 0.069-0.95-1.176-0.086zM30.558 26.103l-4.669-0.023-0.006 1.179 4.669 0.023 0.006-1.179zM25.316 26.82c0.138 0.523 0.475 0.919 0.948 1.186l0.58-1.027c-0.233-0.132-0.341-0.284-0.388-0.46l-1.14 0.301zM26.266 28.007c0.478 0.267 1.076 0.374 1.744 0.374v-1.179c-0.56 0-0.933-0.093-1.169-0.224l-0.575 1.029zM28.011 28.382c0.717 0 1.505-0.194 2.351-0.546l-0.453-1.089c-0.758 0.316-1.387 0.456-1.898 0.456v1.179zM30.135 27.881h0.311v-1.179h-0.311v1.179zM29.858 27.247l-0.109 1.462 1.176 0.088 0.109-1.462-1.176-0.088z"></path>
</symbol>
</defs>
</svg>
